<svg xmlns="http://www.w3.org/2000/svg" viewBox="0 0 64 64" enable-background="new 0 0 64 64"><path fill-rule="evenodd" clip-rule="evenodd" fill="#80E1EF" d="M9.6 4h44.8C57.5 4 60 6.5 60 9.6v44.8c0 3.1-2.5 5.6-5.6 5.6H9.6C6.5 60 4 57.5 4 54.4V9.6C4 6.5 6.5 4 9.6 4z"/><path fill="#fff" d="M32 48.5l-6.3-10.7s-6.9 2.7-9.3 4.3C14 43.7 13 48.6 13 48.6h38.1s-.7-4.6-3.5-6.5c-2.4-1.6-9.3-4.3-9.3-4.3L32 48.5zm0-8.6L29.9 42l1.1 2.1-3.2 4.3h8.5L33 44.2l1.1-2.1-2.1-2.2zm.2-24.4c9.3 0 9.3 7.1 9.3 11.1s-3.7 11.5-9.3 11.5c-5.6 0-9.3-7.5-9.3-11.5s0-11.1 9.3-11.1zm0 0"/></svg>