<svg xmlns="http://www.w3.org/2000/svg" viewBox="0 0 64 64" enable-background="new 0 0 64 64"><path d="M20 21h24.1c.6 0 1.2-.5 1.2-1.2 0-.6-.5-1.1-1.2-1.1H20c-.6 0-1.2.5-1.2 1.1 0 .8.6 1.2 1.2 1.2zm26.2 2.2H17.8c-1.7 0-3.3 1.5-3.3 3.3v19.7c0 1.7 1.5 3.3 3.3 3.3h28.4c1.7 0 3.3-1.5 3.3-3.3V26.6c0-1.9-1.5-3.4-3.3-3.4zm1 22c0 1.2-1 2.2-2.2 2.2H18.8c-1.2 0-2.2-1-2.2-2.2V27.6c0-1.2 1-2.2 2.2-2.2h26.3c1.2 0 2.2 1 2.2 2.2l-.1 17.6zm-24-28.5h17.5c.6 0 1.2-.5 1.2-1.2 0-.5-.5-1.1-1.2-1.1H23.2c-.6 0-1.2.5-1.2 1.1.2.7.7 1.2 1.2 1.2z"/></svg>