<svg xmlns="http://www.w3.org/2000/svg" viewBox="0 0 64 64" enable-background="new 0 0 64 64"><path fill="#FF8885" d="M53 4H11c-3.9 0-7 3.1-7 7v42c0 3.9 3.1 7 7 7h42c3.9 0 7-3.1 7-7V11c0-3.9-3.1-7-7-7zm3.5 49c0 1.9-1.6 3.5-3.5 3.5H11c-1.9 0-3.5-1.6-3.5-3.5V11c0-1.9 1.6-3.5 3.5-3.5h42c1.9 0 3.5 1.6 3.5 3.5v42zm-7-36.7H19.7c-1 0-1.7.8-1.7 1.7 0 1 .8 1.8 1.7 1.8h29.8c1 0 1.8-.8 1.8-1.8s-.8-1.7-1.8-1.7zm0 13.9H19.7c-1 0-1.7.8-1.7 1.8s.8 1.8 1.7 1.8h29.8c1 0 1.8-.8 1.8-1.8s-.8-1.8-1.8-1.8zm0 14.1H19.7c-1 0-1.7.8-1.7 1.7 0 1 .8 1.8 1.7 1.8h29.8c1 0 1.8-.8 1.8-1.8s-.8-1.7-1.8-1.7zM12.8 19.8h3.5v-3.5h-3.5v3.5zm0 14h3.5v-3.5h-3.5v3.5zm0 14h3.5v-3.5h-3.5v3.5z"/></svg>