<svg xmlns="http://www.w3.org/2000/svg" viewBox="0 0 64 64" enable-background="new 0 0 64 64"><path d="M53.2 28.9L36 10.7C35 9.6 33.5 9 32 9s-3 .6-4 1.7L10.8 28.9c-1.8 1.9-1.5 3.5-1.3 4.2.2.5.9 1.8 2.9 1.8H15v14c0 3.2 2.2 6.2 5.4 6.2H27.7V40.2c0-1.6-.2-2.5 1.4-2.5h5.8c1.6 0 1.4.9 1.4 2.5V55H43.6c3.2 0 5.4-3 5.4-6.2v-14h2.5c2 0 2.7-1.3 2.9-1.8.4-.6.6-2.2-1.2-4.1zM51.5 32h-5.3v16.8c0 1.6-1 3.3-2.6 3.3h-4.5V40.2c0-3.2-1-5.3-4.2-5.3h-5.8c-3.2 0-4.2 2.2-4.2 5.3v11.9h-4.5c-1.6 0-2.6-1.7-2.6-3.3V32h-5.3l-.1-.2c.1-.2.3-.6.5-.9l17.2-18.1c.5-.5 1.2-.9 1.9-.9s1.4.3 1.9.9l17.2 18.1c.3.3.4.7.5.9 0 0 0 .2-.1.2z"/></svg>