<svg xmlns="http://www.w3.org/2000/svg" viewBox="0 0 64 64" enable-background="new 0 0 64 64"><path fill="#211A1B" d="M48 46.5H26.5c-2.6 0-5.2-2-5.7-4.6l-5.9-24.5c-.4-1.6-1.9-3.5-3.3-4.2L7.1 11c-.5-.4-.8-1.1-.4-1.8l.1-.2c.4-.6 1.2-.8 1.8-.5l4.4 2.4c2.1 1.1 4 3.7 4.7 6l5.9 24.5c.3 1.2 1.8 2.4 3 2.4H48c.7 0 1.2.5 1.2 1.2v.3c0 .7-.5 1.2-1.2 1.2zM47.2 40.7H21.8v-2.8h25.5c1.3 0 2.9-1.1 3.3-2.5l4-11.4c.2-.4.2-.8-.1-1.1-.2-.3-.5-.4-1-.4H17.4v-2.8h36.1c1.3 0 2.6.5 3.3 1.6.7 1 .9 2.4.4 3.6l-3.9 11.4c-.9 2.5-3.5 4.4-6.1 4.4zM27.4 55.6c-2.4 0-4.2-1.9-4.2-4.2 0-2.4 1.9-4.2 4.2-4.2s4.2 1.9 4.2 4.2c.2 2.4-1.7 4.2-4.2 4.2zm0-5.8c-.8 0-1.6.6-1.6 1.6 0 .8.6 1.6 1.6 1.6.8 0 1.6-.6 1.6-1.6 0-.8-.6-1.6-1.6-1.6zM45.5 55.6c-2.4 0-4.2-1.9-4.2-4.2 0-2.4 1.9-4.2 4.2-4.2s4.2 1.9 4.2 4.2c0 2.4-1.9 4.2-4.2 4.2zm0-5.8c-.8 0-1.6.6-1.6 1.6 0 .8.6 1.6 1.6 1.6.8 0 1.6-.6 1.6-1.6-.2-.8-.9-1.6-1.6-1.6z"/></svg>