<svg xmlns="http://www.w3.org/2000/svg" viewBox="0 0 64 64" enable-background="new 0 0 64 64"><path fill="#808080" d="M48.4 60h-.5c-2.7-.2-5.8-1.1-8.9-2.7l-3.5-1.9c-6.6-3.6-16.6-14-17.1-14.4l-.7-.8c-1.8-1.9-5.4-6.1-8.6-11.2-3.6-5.8-5.2-10.9-5-15 .2-3 1.4-5.5 3.7-7.3 2.5-2 4.7-2.8 6.8-2.5C16.9 4.5 19 6 21.2 9c.1.2.3.4.4.6 1.6 2.2 3.1 4.1 3.6 6.1.6 2.3-.1 4.5-2.2 6.6v-.1c-.1.1-.6.6-.6 1.8 0 1.2.4 2.6 1.3 4.2 1.2 2.2 3.3 4.6 6.1 7.3 4.7 4.4 7.7 5.7 9.4 5.9 1.5.2 2.2-.3 2.3-.4 1.8-2.1 4.1-2.7 6.8-2 2 .5 4.1 1.7 7.1 3.9 2.2 1.7 3.6 3.3 4.2 5.1.6 1.9.3 4-.9 6.1-.3.6-1.1.8-1.6.4-.6-.3-.8-1.1-.4-1.6.9-1.6 1.1-2.9.7-4.2-.4-1.3-1.5-2.6-3.3-3.9-3.4-2.6-5.2-3.2-6.2-3.5-1.9-.5-3.2-.1-4.4 1.3-.1.2-1.1 1.2-3 1.3-3.2.2-7.3-2-12.1-6.6-5.6-5.3-8.3-9.8-8.2-13.4.1-2 1.1-3.1 1.4-3.4 3-3 1.7-5-1.6-9.5-.1-.2-.3-.4-.4-.6-1.8-2.4-3.4-3.7-5-3.9-1.5-.2-3.1.5-5 2-2 1.3-3 3.2-3.1 5.5-.2 3.5 1.4 8.2 4.6 13.6 3.6 5.9 7.8 10.4 9 11.6l.2.2c1.3 1.3 10.5 10.6 16.3 13.8l3.5 1.9c2.8 1.4 5.6 2.3 8 2.5.1 0 1.1 0 2.1-.1.4-.1.8-.1 1.2-.2 1.6-.3 3.7-.7 6.5-.8.7 0 1.2.5 1.2 1.1 0 .7-.5 1.2-1.1 1.2-2.6.1-4.5.5-6.1.8-.5.1-.9.2-1.3.2-.9.2-1.7.2-2.2.2zm0 0"/></svg>