<?xml version="1.0" encoding="utf-8"?>
<!-- Generator: Adobe Illustrator 18.0.0, SVG Export Plug-In . SVG Version: 6.00 Build 0)  -->
<!DOCTYPE svg PUBLIC "-//W3C//DTD SVG 1.1//EN" "http://www.w3.org/Graphics/SVG/1.1/DTD/svg11.dtd">
<svg version="1.1" id="图层_1" xmlns="http://www.w3.org/2000/svg" xmlns:xlink="http://www.w3.org/1999/xlink" x="0px" y="0px"
	 viewBox="0 0 64 64" enable-background="new 0 0 64 64" xml:space="preserve">
<path fill="#BFBFBF" d="M63.2,63.1c-1.1,1.1-2.9,1.1-4,0L42.3,46.3C37.8,49.8,32.2,52,26,52C11.6,52,0,40.4,0,26S11.6,0,26,0
	s26,11.6,26,26c0,6.1-2.1,11.8-5.7,16.2l16.9,16.9C64.3,60.2,64.3,62,63.2,63.1z M48,26c0-12.1-9.8-22-22-22S4,13.9,4,26
	s9.8,22,22,22S48,38.2,48,26z"/>
</svg>
