<?xml version="1.0" encoding="utf-8"?>
<!-- Generator: Adobe Illustrator 18.0.0, SVG Export Plug-In . SVG Version: 6.00 Build 0)  -->
<!DOCTYPE svg PUBLIC "-//W3C//DTD SVG 1.1//EN" "http://www.w3.org/Graphics/SVG/1.1/DTD/svg11.dtd">
<svg version="1.1" id="图层_1" xmlns="http://www.w3.org/2000/svg" xmlns:xlink="http://www.w3.org/1999/xlink" x="0px" y="0px"
	 viewBox="0 0 64 64" enable-background="new 0 0 64 64" xml:space="preserve">
<path fill-rule="evenodd" clip-rule="evenodd" fill="#CA94F0" d="M9.6,4h44.8C57.5,4,60,6.5,60,9.6v44.8c0,3.1-2.5,5.6-5.6,5.6H9.6
	C6.5,60,4,57.5,4,54.4V9.6C4,6.5,6.5,4,9.6,4z"/>
<path fill-rule="evenodd" clip-rule="evenodd" fill="#FFFFFF" d="M19.8,16.4l-3,3c-1.6,1.7-0.9,3.6,0,6c0,0,4.1,7,9.4,12.4
	c5.6,5.7,12.2,9.4,12.2,9.4c2.2,1.1,4.3,1.7,6,0l3-3c0.8-0.8,1-2.3,0-3l-6-4.5c-1-0.7-2.2-0.8-3,0l0,0c0,0,0,0,0,0l-1.8,1.8
	c-2.1-1.6-4.4-3.4-6.4-5.5c-1.8-1.8-3.5-3.8-4.8-5.7l1.8-1.8c0.8-0.8,0.7-2,0-3l-4.5-6C22,15.6,20.7,15.6,19.8,16.4"/>
</svg>
