<?xml version="1.0" encoding="utf-8"?>
<!-- Generator: Adobe Illustrator 18.0.0, SVG Export Plug-In . SVG Version: 6.00 Build 0)  -->
<!DOCTYPE svg PUBLIC "-//W3C//DTD SVG 1.1//EN" "http://www.w3.org/Graphics/SVG/1.1/DTD/svg11.dtd">
<svg version="1.1" id="图层_1" xmlns="http://www.w3.org/2000/svg" xmlns:xlink="http://www.w3.org/1999/xlink" x="0px" y="0px"
	 viewBox="0 0 64 64" enable-background="new 0 0 64 64" xml:space="preserve">
<path fill-rule="evenodd" clip-rule="evenodd" fill="#8DA9F2" d="M9.6,4h44.8C57.5,4,60,6.5,60,9.6v44.8c0,3.1-2.5,5.6-5.6,5.6H9.6
	C6.5,60,4,57.5,4,54.4V9.6C4,6.5,6.5,4,9.6,4z"/>
<path fill-rule="evenodd" clip-rule="evenodd" fill="#FFFFFF" d="M50.5,47.8H13.5c-1.4,0-2.5-1.1-2.5-2.4V18.7
	c0-1.3,1.1-2.4,2.5-2.4h36.9c1.4,0,2.5,1.1,2.5,2.4v26.7C53,46.7,51.9,47.8,50.5,47.8z M16.3,39.5c0,0.2,0.2,0.4,0.4,0.4h7.6
	c0.2,0,0.4-0.2,0.4-0.4v-1.2c0-0.2-0.2-0.4-0.4-0.4h-7.6c-0.2,0-0.4,0.2-0.4,0.4V39.5z M47.8,24.5c0-0.2-0.2-0.4-0.4-0.4H16.6
	c-0.2,0-0.4,0.2-0.4,0.4v1.2c0,0.2,0.2,0.4,0.4,0.4h30.7c0.2,0,0.4-0.2,0.4-0.4V24.5z"/>
</svg>
