<?xml version="1.0" encoding="utf-8"?>
<!-- Generator: Adobe Illustrator 18.0.0, SVG Export Plug-In . SVG Version: 6.00 Build 0)  -->
<!DOCTYPE svg PUBLIC "-//W3C//DTD SVG 1.1//EN" "http://www.w3.org/Graphics/SVG/1.1/DTD/svg11.dtd">
<svg version="1.1" id="图层_1" xmlns="http://www.w3.org/2000/svg" xmlns:xlink="http://www.w3.org/1999/xlink" x="0px" y="0px"
	 viewBox="0 0 64 64" enable-background="new 0 0 64 64" xml:space="preserve">
<path fill-rule="evenodd" clip-rule="evenodd" fill="#80E1EF" d="M9.6,4h44.8C57.5,4,60,6.5,60,9.6v44.8c0,3.1-2.5,5.6-5.6,5.6H9.6
	C6.5,60,4,57.5,4,54.4V9.6C4,6.5,6.5,4,9.6,4z"/>
<g>
	<path fill="#FFFFFF" d="M32,48.5l-6.3-10.7c0,0-6.9,2.7-9.3,4.3c-2.4,1.6-3.4,6.5-3.4,6.5h38.1c0,0-0.7-4.6-3.5-6.5
		c-2.4-1.6-9.3-4.3-9.3-4.3L32,48.5L32,48.5z M32,39.9l-2.1,2.1l1.1,2.1l-3.2,4.3h8.5L33,44.2l1.1-2.1L32,39.9L32,39.9z M32.2,15.5
		c9.3,0,9.3,7.1,9.3,11.1c0,4-3.7,11.5-9.3,11.5c-5.6,0-9.3-7.5-9.3-11.5C22.9,22.6,22.9,15.5,32.2,15.5L32.2,15.5z M32.2,15.5"/>
</g>
</svg>
