<?xml version="1.0" encoding="utf-8"?>
<!-- Generator: Adobe Illustrator 18.0.0, SVG Export Plug-In . SVG Version: 6.00 Build 0)  -->
<!DOCTYPE svg PUBLIC "-//W3C//DTD SVG 1.1//EN" "http://www.w3.org/Graphics/SVG/1.1/DTD/svg11.dtd">
<svg version="1.1" id="图层_1" xmlns="http://www.w3.org/2000/svg" xmlns:xlink="http://www.w3.org/1999/xlink" x="0px" y="0px"
	 viewBox="0 0 64 64" enable-background="new 0 0 64 64" xml:space="preserve">
<path fill-rule="evenodd" clip-rule="evenodd" fill="#F5B75C" d="M9.6,4h44.8C57.5,4,60,6.5,60,9.6v44.8c0,3.1-2.5,5.6-5.6,5.6H9.6
	C6.5,60,4,57.5,4,54.4V9.6C4,6.5,6.5,4,9.6,4z"/>
<g>
	<g>
		<path fill-rule="evenodd" clip-rule="evenodd" fill="#FFFFFF" d="M44.2,17.9h-3h-6h-1.4h-3c-3.5,0-6.3,2.8-6.3,6.3v0.1l-7.4,4.5
			c-3.7,1.8-4.3,3.7-4.6,6.4v9.1c0,2,1.7,3.6,3.7,3.6h1.9c0.4,2.6,2.7,4.6,5.5,4.6c2.8,0,5-2,5.5-4.6h5.7c0.4,2.6,2.7,4.6,5.5,4.6
			c2.8,0,5.2-2.1,5.5-4.8c2.7-0.7,4.7-3.2,4.7-6.1V24.2C50.5,20.7,47.7,17.9,44.2,17.9z M19,37c-1,0-1.9-0.8-1.9-1.8h6.5
			c0.5,0,0.9-0.4,0.9-0.9v-6.4c1,0,1.9,0.8,1.9,1.8v5.5c0,1-0.8,1.8-1.9,1.8H19z M23.7,50.9c-1.8,0-3.4-1.2-3.8-2.9h4.7h2.8
			C27,49.6,25.5,50.9,23.7,50.9z M40.3,50.9c-1.8,0-3.4-1.2-3.8-2.9h4.7h2.8C43.7,49.6,42.2,50.9,40.3,50.9z"/>
	</g>
</g>
</svg>
