<?xml version="1.0" encoding="utf-8"?>
<!-- Generator: Adobe Illustrator 18.0.0, SVG Export Plug-In . SVG Version: 6.00 Build 0)  -->
<!DOCTYPE svg PUBLIC "-//W3C//DTD SVG 1.1//EN" "http://www.w3.org/Graphics/SVG/1.1/DTD/svg11.dtd">
<svg version="1.1" id="图层_1" xmlns="http://www.w3.org/2000/svg" xmlns:xlink="http://www.w3.org/1999/xlink" x="0px" y="0px"
	 viewBox="0 0 64 64" enable-background="new 0 0 64 64" xml:space="preserve">
<g>
	<g>
		<path fill-rule="evenodd" clip-rule="evenodd" d="M46,30.7H33.3V18c0-0.4-0.3-0.7-0.7-0.7h-1.3c-0.4,0-0.7,0.3-0.7,0.7v12.7H18
			c-0.4,0-0.7,0.3-0.7,0.7v1.3c0,0.4,0.3,0.7,0.7,0.7h12.7V46c0,0.4,0.3,0.7,0.7,0.7h1.3c0.4,0,0.7-0.3,0.7-0.7V33.3H46
			c0.4,0,0.7-0.3,0.7-0.7v-1.3C46.7,31,46.4,30.7,46,30.7z M32,4C16.5,4,4,16.5,4,32c0,15.5,12.5,28,28,28s28-12.5,28-28
			C60,16.5,47.5,4,32,4z M32,57.2C18.1,57.2,6.8,45.9,6.8,32S18.1,6.8,32,6.8c13.9,0,25.2,11.3,25.2,25.2S45.9,57.2,32,57.2z"/>
	</g>
</g>
</svg>
