<?xml version="1.0" encoding="utf-8"?>
<!-- Generator: Adobe Illustrator 18.0.0, SVG Export Plug-In . SVG Version: 6.00 Build 0)  -->
<!DOCTYPE svg PUBLIC "-//W3C//DTD SVG 1.1//EN" "http://www.w3.org/Graphics/SVG/1.1/DTD/svg11.dtd">
<svg version="1.1" id="图层_1" xmlns="http://www.w3.org/2000/svg" xmlns:xlink="http://www.w3.org/1999/xlink" x="0px" y="0px"
	 viewBox="0 0 64 64" enable-background="new 0 0 64 64" xml:space="preserve">
<g>
	<g>
		<path fill="#FF8885" d="M46.6,59.9c-0.8,0-1.7-0.2-2.4-0.6l-10.6-5.7c-0.9-0.5-2.1-0.5-3.1,0l-10.7,5.6c-2.2,1.1-5,0.5-6.5-1.3
			c-1-1.2-1.4-2.7-1.1-4.2l2-11.9c0.2-1.1-0.2-2.2-0.9-2.9l-8.7-8.5c-1.4-1.4-1.9-3.4-1.3-5.3c0.6-1.9,2.2-3.3,4.2-3.7l12-1.7
			c1-0.1,2-0.8,2.4-1.8L27.3,7C28.2,5.2,30,4.2,32,4.2c2.1,0,3.9,1.1,4.7,2.9L42.1,18c0.4,1,1.3,1.6,2.4,1.8l12,1.7
			c2,0.3,3.6,1.6,4.3,3.6c0.6,1.9,0.1,4-1.3,5.4l-8.8,8.5c-0.8,0.8-1.1,1.9-0.9,2.9l2,11.9c0.3,1.5-0.1,3.1-1.1,4.2
			C49.6,59.2,48.1,59.9,46.6,59.9z M32,51.2c0.9,0,1.7,0.2,2.5,0.7l10.6,5.7c1.3,0.7,3.1,0.3,4-0.8c0.6-0.7,0.9-1.7,0.7-2.6l-2-11.9
			c-0.3-1.6,0.2-3.4,1.5-4.7l8.8-8.5c0.9-0.9,1.2-2.2,0.8-3.4c-0.4-1.2-1.4-2-2.6-2.2l-12-1.7c-1.8-0.3-3.2-1.3-4-2.9L34.9,7.9
			c-0.5-1.1-1.6-1.8-2.9-1.8c-1.2,0-2.3,0.6-2.9,1.7l-5.4,10.9c-0.8,1.5-2.3,2.6-4,2.8l-12,1.7c-1.3,0.2-2.3,1.1-2.7,2.3
			C4.7,26.8,5,28,5.9,28.9l8.7,8.5c1.2,1.2,1.7,2.9,1.5,4.7l-2,11.9c-0.2,1,0.1,1.9,0.7,2.6c1,1.2,2.7,1.5,4.1,0.8l10.7-5.6
			C30.3,51.4,31.2,51.2,32,51.2z"/>
	</g>
</g>
</svg>
