<?xml version="1.0" encoding="utf-8"?>
<!-- Generator: Adobe Illustrator 18.0.0, SVG Export Plug-In . SVG Version: 6.00 Build 0)  -->
<!DOCTYPE svg PUBLIC "-//W3C//DTD SVG 1.1//EN" "http://www.w3.org/Graphics/SVG/1.1/DTD/svg11.dtd">
<svg version="1.1" id="图层_1" xmlns="http://www.w3.org/2000/svg" xmlns:xlink="http://www.w3.org/1999/xlink" x="0px" y="0px"
	 viewBox="0 0 64 64" enable-background="new 0 0 64 64" xml:space="preserve">
<g>
	<g>
		<path fill-rule="evenodd" clip-rule="evenodd" d="M55.1,12.4C46.8,4.1,38.6,7.7,32,13.6C25.4,7.7,17.3,4,8.9,12.4
			c-6.5,6.5-6.6,17,0,23.4c23,20.7,23,20.7,23,20.7s0,0.1,23.2-20.7C61.7,29.4,61.6,18.9,55.1,12.4z M52.6,33
			c-12.4,10.9-18.1,16.8-20.7,19c-2.6-2.3-8.4-8.2-20.7-19.2c-2.4-2.3-3.7-5.5-3.7-8.9c0-3.5,1.4-6.7,3.9-9.2
			c2.6-2.6,5.1-3.8,7.8-3.8c3.1,0,6.6,1.7,10.5,5.2l2.3,2.1l2.3-2.1c3.8-3.4,7.4-5.1,10.5-5.1c2.7,0,5.2,1.2,7.8,3.8
			c2.5,2.5,3.9,5.7,3.9,9.2C56.5,27.4,55.1,30.6,52.6,33z"/>
	</g>
</g>
</svg>
