<?xml version="1.0" encoding="utf-8"?>
<!-- Generator: Adobe Illustrator 18.0.0, SVG Export Plug-In . SVG Version: 6.00 Build 0)  -->
<!DOCTYPE svg PUBLIC "-//W3C//DTD SVG 1.1//EN" "http://www.w3.org/Graphics/SVG/1.1/DTD/svg11.dtd">
<svg version="1.1" id="图层_1" xmlns="http://www.w3.org/2000/svg" xmlns:xlink="http://www.w3.org/1999/xlink" x="0px" y="0px"
	 viewBox="0 0 64 64" enable-background="new 0 0 64 64" xml:space="preserve">
<g>
	<g>
		<g>
			<path d="M32.8,17.4h-1.9c-1.1,0-1.9,0.8-1.9,1.7v17c0,0.9,0.9,1.7,1.9,1.7h1.9c1.1,0,1.9-0.8,1.9-1.7v-17
				C34.7,18.2,33.9,17.4,32.8,17.4z M32.8,41.2h-1.9c-1.1,0-1.9,0.8-1.9,1.7v3.4c0,0.9,0.9,1.7,1.9,1.7h1.9c1.1,0,1.9-0.8,1.9-1.7
				v-3.4C34.7,42,33.9,41.2,32.8,41.2z M32,4C16.5,4,4,16.5,4,32s12.5,28,28,28s28-12.5,28-28S47.5,4,32,4z M32,57.2
				C18.1,57.2,6.8,45.9,6.8,32S18.1,6.8,32,6.8S57.2,18.1,57.2,32S45.9,57.2,32,57.2z"/>
		</g>
	</g>
</g>
</svg>
