<?xml version="1.0" encoding="utf-8"?>
<!-- Generator: Adobe Illustrator 18.0.0, SVG Export Plug-In . SVG Version: 6.00 Build 0)  -->
<!DOCTYPE svg PUBLIC "-//W3C//DTD SVG 1.1//EN" "http://www.w3.org/Graphics/SVG/1.1/DTD/svg11.dtd">
<svg version="1.1" id="图层_1" xmlns="http://www.w3.org/2000/svg" xmlns:xlink="http://www.w3.org/1999/xlink" x="0px" y="0px"
	 viewBox="0 0 64 64" enable-background="new 0 0 64 64" xml:space="preserve">
<g>
	<g>
		<path d="M53,39c3.9,0,7-3.1,7-7c0-3.9-3.1-7-7-7h-1.2c-0.2-0.7-0.5-1.4-0.8-2l0.9-0.9c1.3-1.3,2-3.1,2-4.9c0-1.9-0.7-3.6-2-4.9
			c-1.3-1.3-3.1-2-4.9-2c-1.9,0-3.6,0.7-4.9,2L41,13.1c-0.7-0.3-1.3-0.6-2-0.8V11c0-3.9-3.1-7-7-7c-3.9,0-7,3.1-7,7v1.2
			c-0.7,0.2-1.4,0.5-2,0.8l-0.9-0.9c-1.3-1.3-3.1-2-4.9-2c-1.9,0-3.6,0.7-4.9,2c-1.3,1.3-2,3.1-2,4.9c0,1.9,0.7,3.6,2,4.9l0.9,0.9
			c-0.3,0.7-0.6,1.3-0.8,2H11c-3.9,0-7,3.1-7,7c0,3.9,3.1,7,7,7h1.2c0.2,0.7,0.5,1.4,0.8,2l-0.9,0.9c-1.3,1.3-2,3.1-2,4.9
			c0,1.9,0.7,3.6,2,4.9c1.3,1.3,3.1,2,4.9,2c1.9,0,3.6-0.7,4.9-2l0.9-0.9c0.7,0.3,1.3,0.6,2,0.8V53c0,3.9,3.1,7,7,7c3.9,0,7-3.1,7-7
			v-1.2c0.7-0.2,1.4-0.5,2-0.8l0.9,0.9c1.3,1.3,3.1,2,4.9,2c1.9,0,3.6-0.7,4.9-2c1.3-1.3,2-3.1,2-4.9c0-1.9-0.7-3.6-2-4.9L50.9,41
			c0.3-0.7,0.6-1.3,0.8-2H53z M49.3,44.4c0.7,0.7,1,1.5,1,2.5c0,0.9-0.4,1.8-1,2.5c-1.3,1.3-3.6,1.3-4.9,0l-2.7-2.7l-1.2,0.6
			c-1.2,0.7-2.4,1.2-3.8,1.5l-1.3,0.4V53c0,1.9-1.6,3.5-3.5,3.5c-1.9,0-3.5-1.6-3.5-3.5v-3.8l-1.3-0.4c-1.3-0.4-2.6-0.9-3.8-1.5
			l-1.2-0.6l-2.7,2.7c-1.3,1.3-3.6,1.3-4.9,0c-0.7-0.7-1-1.5-1-2.5c0-0.9,0.4-1.8,1-2.5l2.7-2.7l-0.6-1.2c-0.6-1.2-1.2-2.4-1.5-3.8
			l-0.4-1.3H11c-1.9,0-3.5-1.6-3.5-3.5s1.6-3.5,3.5-3.5h3.8l0.4-1.3c0.4-1.3,0.9-2.6,1.5-3.8l0.6-1.2l-2.7-2.7c-0.7-0.7-1-1.5-1-2.5
			s0.4-1.8,1-2.5c1.3-1.3,3.6-1.3,4.9,0l2.7,2.7l1.2-0.6c1.2-0.7,2.4-1.2,3.8-1.5l1.3-0.4V11c0-1.9,1.6-3.5,3.5-3.5
			c1.9,0,3.5,1.6,3.5,3.5v3.8l1.3,0.4c1.3,0.4,2.6,0.9,3.8,1.5l1.2,0.6l2.7-2.7c1.3-1.3,3.6-1.3,4.9,0c0.7,0.7,1,1.5,1,2.5
			s-0.4,1.8-1,2.5l-2.7,2.7l0.6,1.2c0.7,1.2,1.2,2.4,1.5,3.8l0.4,1.3H53c1.9,0,3.5,1.6,3.5,3.5s-1.6,3.5-3.5,3.5h-3.8l-0.4,1.3
			c-0.4,1.3-0.9,2.6-1.5,3.8l-0.6,1.2L49.3,44.4z M32,21.5c-5.8,0-10.5,4.7-10.5,10.5S26.2,42.5,32,42.5c5.8,0,10.5-4.7,10.5-10.5
			S37.8,21.5,32,21.5z M32,39c-3.9,0-7-3.1-7-7c0-3.9,3.1-7,7-7c3.9,0,7,3.1,7,7C39,35.9,35.9,39,32,39z"/>
	</g>
</g>
</svg>
