<?xml version="1.0" encoding="utf-8"?>
<!-- Generator: Adobe Illustrator 18.0.0, SVG Export Plug-In . SVG Version: 6.00 Build 0)  -->
<!DOCTYPE svg PUBLIC "-//W3C//DTD SVG 1.1//EN" "http://www.w3.org/Graphics/SVG/1.1/DTD/svg11.dtd">
<svg version="1.1" id="图层_1" xmlns="http://www.w3.org/2000/svg" xmlns:xlink="http://www.w3.org/1999/xlink" x="0px" y="0px"
	 viewBox="0 0 64 64" enable-background="new 0 0 64 64" xml:space="preserve">
<g>
	<path fill="#808080" d="M48.4,60c-0.3,0-0.5,0-0.5,0h0c-2.7-0.2-5.8-1.1-8.9-2.7l0,0l-3.5-1.9c-6.6-3.6-16.6-14-17.1-14.4l-0.7-0.8
		l0,0c-1.8-1.9-5.4-6.1-8.6-11.2c-3.6-5.8-5.2-10.9-5-15c0.2-3,1.4-5.5,3.7-7.3c2.5-2,4.7-2.8,6.8-2.5c2.3,0.3,4.4,1.8,6.6,4.8
		c0.1,0.2,0.3,0.4,0.4,0.6c1.6,2.2,3.1,4.1,3.6,6.1c0.6,2.3-0.1,4.5-2.2,6.6L23,22.2l0,0c-0.1,0.1-0.6,0.6-0.6,1.8
		c0,1.2,0.4,2.6,1.3,4.2c1.2,2.2,3.3,4.6,6.1,7.3c4.7,4.4,7.7,5.7,9.4,5.9c1.5,0.2,2.2-0.3,2.3-0.4l0,0l0,0c0,0,0,0,0,0
		c1.8-2.1,4.1-2.7,6.8-2c2,0.5,4.1,1.7,7.1,3.9c2.2,1.7,3.6,3.3,4.2,5.1c0.6,1.9,0.3,4-0.9,6.1c-0.3,0.6-1.1,0.8-1.6,0.4
		c-0.6-0.3-0.8-1.1-0.4-1.6c0.9-1.6,1.1-2.9,0.7-4.2c-0.4-1.3-1.5-2.6-3.3-3.9c-3.4-2.6-5.2-3.2-6.2-3.5c-1.9-0.5-3.2-0.1-4.4,1.3
		c-0.1,0.2-1.1,1.2-3,1.3c-3.2,0.2-7.3-2-12.1-6.6c-5.6-5.3-8.3-9.8-8.2-13.4c0.1-2,1.1-3.1,1.4-3.4c3-3,1.7-5-1.6-9.5
		c-0.1-0.2-0.3-0.4-0.4-0.6c-1.8-2.4-3.4-3.7-5-3.9c-1.5-0.2-3.1,0.5-5,2C7.6,9.8,6.6,11.7,6.5,14c-0.2,3.5,1.4,8.2,4.6,13.6
		c3.6,5.9,7.8,10.4,9,11.6l0.2,0.2c1.3,1.3,10.5,10.6,16.3,13.8l0,0l3.5,1.9c2.8,1.4,5.6,2.3,8,2.5c0.1,0,1.1,0,2.1-0.1
		c0.4-0.1,0.8-0.1,1.2-0.2c1.6-0.3,3.7-0.7,6.5-0.8c0.7,0,1.2,0.5,1.2,1.1c0,0.7-0.5,1.2-1.1,1.2c-2.6,0.1-4.5,0.5-6.1,0.8
		c-0.5,0.1-0.9,0.2-1.3,0.2C49.7,60,48.9,60,48.4,60L48.4,60z M48.4,60"/>
</g>
</svg>
