<?xml version="1.0" encoding="utf-8"?>
<!-- Generator: Adobe Illustrator 18.0.0, SVG Export Plug-In . SVG Version: 6.00 Build 0)  -->
<!DOCTYPE svg PUBLIC "-//W3C//DTD SVG 1.1//EN" "http://www.w3.org/Graphics/SVG/1.1/DTD/svg11.dtd">
<svg version="1.1" id="图层_1" xmlns="http://www.w3.org/2000/svg" xmlns:xlink="http://www.w3.org/1999/xlink" x="0px" y="0px"
	 viewBox="0 0 64 64" enable-background="new 0 0 64 64" xml:space="preserve">
<g>
	<g>
		<path fill="#211A1B" d="M48,46.5H26.5c-2.6,0-5.2-2-5.7-4.6l-5.9-24.5c-0.4-1.6-1.9-3.5-3.3-4.2L7.1,11c-0.5-0.4-0.8-1.1-0.4-1.8
			L6.8,9C7.2,8.4,8,8.2,8.6,8.5l4.4,2.4c2.1,1.1,4,3.7,4.7,6l5.9,24.5c0.3,1.2,1.8,2.4,3,2.4H48c0.7,0,1.2,0.5,1.2,1.2v0.3
			C49.2,46,48.7,46.5,48,46.5z"/>
	</g>
	<g>
		<path fill="#211A1B" d="M47.2,40.7H21.8v-2.8h25.5c1.3,0,2.9-1.1,3.3-2.5L54.6,24c0.2-0.4,0.2-0.8-0.1-1.1c-0.2-0.3-0.5-0.4-1-0.4
			H17.4v-2.8h36.1c1.3,0,2.6,0.5,3.3,1.6c0.7,1,0.9,2.4,0.4,3.6l-3.9,11.4C52.4,38.8,49.8,40.7,47.2,40.7z"/>
	</g>
	<g>
		<path fill="#211A1B" d="M27.4,55.6c-2.4,0-4.2-1.9-4.2-4.2c0-2.4,1.9-4.2,4.2-4.2s4.2,1.9,4.2,4.2C31.8,53.8,29.9,55.6,27.4,55.6z
			 M27.4,49.8c-0.8,0-1.6,0.6-1.6,1.6c0,0.8,0.6,1.6,1.6,1.6c0.8,0,1.6-0.6,1.6-1.6C29,50.6,28.4,49.8,27.4,49.8z"/>
	</g>
	<g>
		<path fill="#211A1B" d="M45.5,55.6c-2.4,0-4.2-1.9-4.2-4.2c0-2.4,1.9-4.2,4.2-4.2s4.2,1.9,4.2,4.2C49.7,53.8,47.8,55.6,45.5,55.6z
			 M45.5,49.8c-0.8,0-1.6,0.6-1.6,1.6c0,0.8,0.6,1.6,1.6,1.6c0.8,0,1.6-0.6,1.6-1.6C46.9,50.6,46.2,49.8,45.5,49.8z"/>
	</g>
</g>
</svg>
