<?xml version="1.0" encoding="utf-8"?>
<!-- Generator: Adobe Illustrator 18.0.0, SVG Export Plug-In . SVG Version: 6.00 Build 0)  -->
<!DOCTYPE svg PUBLIC "-//W3C//DTD SVG 1.1//EN" "http://www.w3.org/Graphics/SVG/1.1/DTD/svg11.dtd">
<svg version="1.1" id="图层_1" xmlns="http://www.w3.org/2000/svg" xmlns:xlink="http://www.w3.org/1999/xlink" x="0px" y="0px"
	 viewBox="0 0 64 64" enable-background="new 0 0 64 64" xml:space="preserve">
<g>
	<g>
		<path d="M20,21h24.1c0.6,0,1.2-0.5,1.2-1.2c0-0.6-0.5-1.1-1.2-1.1H20c-0.6,0-1.2,0.5-1.2,1.1C18.8,20.6,19.4,21,20,21z M46.2,23.2
			H17.8c-1.7,0-3.3,1.5-3.3,3.3v19.7c0,1.7,1.5,3.3,3.3,3.3h28.4c1.7,0,3.3-1.5,3.3-3.3V26.6C49.5,24.7,48,23.2,46.2,23.2z
			 M47.2,45.2c0,1.2-1,2.2-2.2,2.2H18.8c-1.2,0-2.2-1-2.2-2.2V27.6c0-1.2,1-2.2,2.2-2.2h26.3c1.2,0,2.2,1,2.2,2.2L47.2,45.2
			L47.2,45.2z M23.2,16.7h17.5c0.6,0,1.2-0.5,1.2-1.2c0-0.5-0.5-1.1-1.2-1.1H23.2c-0.6,0-1.2,0.5-1.2,1.1
			C22.2,16.2,22.7,16.7,23.2,16.7z"/>
	</g>
</g>
</svg>
