<?xml version="1.0" encoding="utf-8"?>
<!-- Generator: Adobe Illustrator 18.0.0, SVG Export Plug-In . SVG Version: 6.00 Build 0)  -->
<!DOCTYPE svg PUBLIC "-//W3C//DTD SVG 1.1//EN" "http://www.w3.org/Graphics/SVG/1.1/DTD/svg11.dtd">
<svg version="1.1" id="图层_1" xmlns="http://www.w3.org/2000/svg" xmlns:xlink="http://www.w3.org/1999/xlink" x="0px" y="0px"
	 viewBox="0 0 64 64" enable-background="new 0 0 64 64" xml:space="preserve">
<g>
	<path d="M18.6,10.6c-0.3-0.2-0.5-0.5-0.7-0.9c-0.2-0.3-0.3-0.7-0.4-1.1c-0.1-0.4-0.1-0.8,0-1.1c0.1-0.4,0.3-0.7,0.6-1
		C18.3,6.1,18.6,6,18.9,6c0.3,0,0.5,0.1,0.8,0.3c0.3,0.1,0.7,0.3,1.1,0.5c0.4,0.2,1,0.3,1.6,0.3c0.6,0,1-0.2,1.4-0.5
		c0.3-0.3,0.7-0.7,1-1c0.3-0.4,0.6-0.7,1-1C26.1,4.2,26.6,4,27.2,4c0.6,0,1.1,0.2,1.4,0.5c0.3,0.3,0.7,0.7,0.9,1
		c0.3,0.4,0.6,0.7,1,1C30.9,6.9,31.4,7,32.1,7c0.5,0,1-0.2,1.3-0.5c0.3-0.3,0.7-0.6,1-1c0.3-0.4,0.7-0.7,1-1C35.8,4.2,36.3,4,36.9,4
		c0.6,0,1.1,0.2,1.4,0.5c0.4,0.3,0.7,0.7,1,1c0.3,0.4,0.6,0.7,0.9,1c0.3,0.3,0.8,0.5,1.4,0.5c0.6,0,1.2-0.1,1.6-0.3
		c0.4-0.2,0.8-0.3,1.1-0.5c0.3-0.1,0.6-0.2,0.8-0.3c0.3,0,0.5,0.1,0.9,0.4c0.3,0.3,0.5,0.7,0.5,1c0.1,0.4,0.1,0.8,0,1.1
		c-0.1,0.4-0.2,0.7-0.4,1.1c-0.2,0.3-0.4,0.6-0.7,0.9c-0.3,0.3-0.7,0.7-1.3,1.3c-0.6,0.6-1.2,1.2-1.8,1.9c-0.7,0.8-1.5,1.6-2.3,2.4
		h-8H24c-0.8-0.9-1.6-1.7-2.3-2.4c-0.6-0.6-1.2-1.3-1.8-1.9C19.3,11.3,18.9,10.8,18.6,10.6L18.6,10.6z M41.7,18.6
		c2.7,1.5,5.1,3.4,7.3,5.5c0.9,0.9,1.8,2,2.7,3.1c0.9,1.1,1.7,2.4,2.4,3.8c0.7,1.4,1.2,2.9,1.7,4.5c0.4,1.6,0.6,3.3,0.6,5.1
		c0,3-0.5,5.8-1.4,8.2c-0.9,2.4-2.4,4.4-4.4,6.1c-2,1.7-4.5,3-7.6,3.9c-3.1,0.9-6.7,1.3-11,1.3c-4.3,0-8-0.4-11.1-1.3
		c-3.1-0.9-5.6-2.2-7.6-3.9c-2-1.7-3.4-3.7-4.4-6.1c-0.9-2.4-1.4-5.1-1.4-8.2c0-1.8,0.2-3.5,0.6-5.1c0.4-1.6,1-3.1,1.7-4.5
		c0.7-1.4,1.5-2.6,2.3-3.8c0.9-1.1,1.8-2.2,2.7-3.1c2.1-2.1,4.6-4,7.3-5.5H41.7L41.7,18.6z M44.2,35.6h-6.8l4.3-5.7l-2-1.5l-4.3,5.8
		l1.9,1.4h-8.3l2-1.5l-4.3-5.8l-2,1.5l4.3,5.8h-6.8v2.4h9.8v4.9h-9.8v2.5h9.8v4.9h2.4v-4.9h9.8v-2.5h-9.8v-4.9h9.8V35.6L44.2,35.6z
		 M44.2,35.6"/>
</g>
</svg>
