<?xml version="1.0" encoding="utf-8"?>
<!-- Generator: Adobe Illustrator 18.0.0, SVG Export Plug-In . SVG Version: 6.00 Build 0)  -->
<!DOCTYPE svg PUBLIC "-//W3C//DTD SVG 1.1//EN" "http://www.w3.org/Graphics/SVG/1.1/DTD/svg11.dtd">
<svg version="1.1" id="图层_1" xmlns="http://www.w3.org/2000/svg" xmlns:xlink="http://www.w3.org/1999/xlink" x="0px" y="0px"
	 viewBox="0 0 64 64" enable-background="new 0 0 64 64" xml:space="preserve">
<g>
	<g>
		<path fill="#808080" d="M31.9,61c-0.8,0-1.7-0.3-2.4-0.8l-12.4-9.1C10,45.8,6,37.8,6,29.1l0-15.4c0.3-1.7,1.4-3.1,2.9-3.6
			l21.4-6.9c1.1-0.4,2.2-0.4,3.3,0L55,10.1c1.6,0.5,2.7,2,2.7,3.8v15.2c0,8.7-4,16.7-11.1,22l-12.4,9.1C33.6,60.7,32.7,61,31.9,61z
			 M8,14v15.1c0,8.1,3.8,15.5,10.3,20.4l12.4,9.1c0.7,0.5,1.6,0.5,2.3,0l12.4-9.1c6.5-4.9,10.3-12.3,10.3-20.4V13.9
			c0-0.9-0.5-1.6-1.3-1.9L33,5.2c-0.7-0.2-1.4-0.2-2.1,0L9.5,12.1C8.7,12.3,8.2,13.2,8,14z"/>
	</g>
	<g>
		<path fill="#808080" d="M45.1,27.2H18.9c-0.6,0-1-0.4-1-1s0.4-1,1-1h26.2c0.6,0,1,0.4,1,1S45.7,27.2,45.1,27.2z"/>
	</g>
	<g>
		<path fill="#808080" d="M32,44.7c-0.6,0-1-0.4-1-1V14.5c0-0.6,0.4-1,1-1c0.6,0,1,0.4,1,1v29.2C33,44.3,32.6,44.7,32,44.7z"/>
	</g>
</g>
</svg>
