<?xml version="1.0" encoding="utf-8"?>
<!-- Generator: Adobe Illustrator 18.0.0, SVG Export Plug-In . SVG Version: 6.00 Build 0)  -->
<!DOCTYPE svg PUBLIC "-//W3C//DTD SVG 1.1//EN" "http://www.w3.org/Graphics/SVG/1.1/DTD/svg11.dtd">
<svg version="1.1" id="图层_1" xmlns="http://www.w3.org/2000/svg" xmlns:xlink="http://www.w3.org/1999/xlink" x="0px" y="0px"
	 viewBox="0 0 64 64" enable-background="new 0 0 64 64" xml:space="preserve">
<g>
	<g>
		<path fill="#FF8885" d="M32,57.3c-1.1,0-2.2-0.4-3.1-1C10.3,43,3.7,35.5,3,26.3L3,23C3.8,12.8,10.6,7.4,16.5,6.8
			c1-0.1,1.8-0.1,2.6-0.1c6.5,0,9.8,2.8,12.9,6.4c3.2-3.7,6.5-6.4,12.9-6.4c0.8,0,1.7,0,2.6,0.1c5.9,0.6,12.6,6,13.5,16.1l0,3.3
			c-0.7,9.2-7.3,16.7-25.9,30.1C34.2,57,33.1,57.3,32,57.3z M19.1,8.7c-0.8,0-1.5,0-2.4,0.1C11.6,9.4,5.7,14.1,5,23.1l0,3.1
			c0.7,8.4,7,15.6,25.1,28.5c1.1,0.8,2.7,0.8,3.8,0C52,41.7,58.3,34.5,59,26.1l0-3.1c-0.7-8.9-6.6-13.6-11.7-14.2
			c-0.8-0.1-1.6-0.1-2.4-0.1c-6.1,0-8.9,2.7-12.1,6.5L32,16.2l-0.8-0.9C27.6,10.9,24.7,8.7,19.1,8.7z"/>
	</g>
</g>
</svg>
