<?xml version="1.0" encoding="utf-8"?>
<!-- Generator: Adobe Illustrator 18.0.0, SVG Export Plug-In . SVG Version: 6.00 Build 0)  -->
<!DOCTYPE svg PUBLIC "-//W3C//DTD SVG 1.1//EN" "http://www.w3.org/Graphics/SVG/1.1/DTD/svg11.dtd">
<svg version="1.1" id="图层_1" xmlns="http://www.w3.org/2000/svg" xmlns:xlink="http://www.w3.org/1999/xlink" x="0px" y="0px"
	 viewBox="0 0 64 64" enable-background="new 0 0 64 64" xml:space="preserve">
<path fill-rule="evenodd" clip-rule="evenodd" fill="#FFA09D" d="M58.8,16.3c-0.8,1.6-2.6,3-4.9,4.2v-2.7c1.4-0.8,2.5-1.7,2.9-2.6
	c1.1-2.3,1.1-4.6,0-6.3c-1-1.6-2.9-2.5-5.1-2.5c-4.2,0-7.5,8.8-9.1,15.3l-0.9,0.7l-1.4-2.2C41.8,14.1,45.3,4,51.4,4
	C58,4,61.7,9.9,58.8,16.3z M40.4,26.1c1.1,0,2-0.7,2.3-1.7c0.7-0.6,1.5-1.3,2.4-1.9c0.1,0.4,0.2,0.8,0.2,1.2c0,2.7-2.2,4.9-4.9,4.9
	s-4.9-2.2-4.9-4.9c0-2,1.2-3.8,3-4.5c-0.4,2-0.6,3.3-0.6,3.3s-0.7-0.3,0,1.2l0,0c0,0,0,0,0,0C38,25,39.1,26.1,40.4,26.1z M33.1,15.1
	c-0.7,0-1.9,0.5-2.4,1l-24,24.1l17.3,17.4l24-24.1c0.5-0.5,1-1.8,1-2.5l0-5.5c0,0,0,0,0,0v-4.5c0,0,0,0,0,0l0-5.9l-2.1,0
	c0.4-0.9,0.8-1.8,1.2-2.5l0.9,0c1.3,0,2.4,1.1,2.4,2.5l0,3.7h0v9.8h0l0,2.4c0,1.4-0.8,3.2-1.7,4.2l-24,24.1c-1,1-2.5,1-3.5,0
	L4.9,41.9c-1-1-1-2.5,0-3.5l24-24.1c1-1,2.8-1.7,4.2-1.7l7.2,0c-0.3,0.8-0.6,1.7-0.8,2.5L33.1,15.1z M33.7,57.5l19.1-19.2
	c0.5-0.5,1-1.8,1-2.5l0-11.9c0.9-0.5,1.7-1,2.4-1.6l0,13.5c0,1.4-0.8,3.2-1.7,4.2L35.5,59.3c-1,1-2.5,1-3.5,0l-1.5-1.5l1.7-1.7
	L33.7,57.5z"/>
</svg>
