<?xml version="1.0" encoding="utf-8"?>
<!-- Generator: Adobe Illustrator 18.0.0, SVG Export Plug-In . SVG Version: 6.00 Build 0)  -->
<!DOCTYPE svg PUBLIC "-//W3C//DTD SVG 1.1//EN" "http://www.w3.org/Graphics/SVG/1.1/DTD/svg11.dtd">
<svg version="1.1" id="图层_1" xmlns="http://www.w3.org/2000/svg" xmlns:xlink="http://www.w3.org/1999/xlink" x="0px" y="0px"
	 viewBox="0 0 64 64" enable-background="new 0 0 64 64" xml:space="preserve">
<g>
	<g>
		<path d="M50.1,44.3H16c-0.6,0-1-0.4-1-1s0.4-1,1-1h34.1c1.5,0,2.6-0.8,2.9-2.1l5.9-21.8c0.2-0.8,0.1-1.6-0.4-2.3
			C58,15.4,57,15,56,15H12c-0.6,0-1-0.4-1-1s0.4-1,1-1h44c1.6,0,3.2,0.7,4.1,2c0.9,1.1,1.1,2.6,0.7,4L55,40.8
			C54.4,42.9,52.5,44.3,50.1,44.3z"/>
	</g>
	<g>
		<path d="M53.3,52.3H19.5c-2.6,0-4.6-1.7-5-4.2l-5-38.8C9.3,7.9,8.1,7,6.5,7H4C3.4,7,3,6.6,3,6s0.4-1,1-1h2.5c2.6,0,4.6,1.7,5,4.1
			l5,38.8c0.2,1.4,1.5,2.4,3,2.4h33.8c0.6,0,1,0.4,1,1S53.9,52.3,53.3,52.3z"/>
	</g>
	<g>
		<path d="M25.3,59H20c-0.6,0-1-0.4-1-1s0.4-1,1-1h5.3c0.6,0,1,0.4,1,1S25.9,59,25.3,59z"/>
	</g>
	<g>
		<path d="M49.3,59H44c-0.6,0-1-0.4-1-1s0.4-1,1-1h5.3c0.6,0,1,0.4,1,1S49.9,59,49.3,59z"/>
	</g>
</g>
</svg>
