<?xml version="1.0" encoding="utf-8"?>
<!-- Generator: Adobe Illustrator 18.0.0, SVG Export Plug-In . SVG Version: 6.00 Build 0)  -->
<!DOCTYPE svg PUBLIC "-//W3C//DTD SVG 1.1//EN" "http://www.w3.org/Graphics/SVG/1.1/DTD/svg11.dtd">
<svg version="1.1" id="图层_1" xmlns="http://www.w3.org/2000/svg" xmlns:xlink="http://www.w3.org/1999/xlink" x="0px" y="0px"
	 viewBox="0 0 64 64" enable-background="new 0 0 64 64" xml:space="preserve">
<g>
	<g>
		<path fill="#666666" d="M48.1,60.3H13c-5.5,0-10-4.5-10-10V15.1c0-5.4,4.4-9.8,9.8-9.8h33.9c0.6,0,1,0.4,1,1s-0.4,1-1,1H12.8
			C8.5,7.3,5,10.8,5,15.1v35.2c0,4.4,3.6,8,8,8h35.1c4.4,0,8-3.6,8-8V23.9c0-0.6,0.4-1,1-1s1,0.4,1,1v26.4
			C58.1,55.8,53.6,60.3,48.1,60.3z"/>
	</g>
	<g>
		<path fill="#666666" d="M26.1,39.6c-0.3,0-0.5-0.1-0.7-0.3c-0.4-0.4-0.4-1,0-1.4L59.3,4c0.4-0.4,1-0.4,1.4,0s0.4,1,0,1.4
			L26.8,39.3C26.6,39.5,26.4,39.6,26.1,39.6z"/>
	</g>
</g>
</svg>
