<?xml version="1.0" encoding="utf-8"?>
<!-- Generator: Adobe Illustrator 18.0.0, SVG Export Plug-In . SVG Version: 6.00 Build 0)  -->
<!DOCTYPE svg PUBLIC "-//W3C//DTD SVG 1.1//EN" "http://www.w3.org/Graphics/SVG/1.1/DTD/svg11.dtd">
<svg version="1.1" id="图层_1" xmlns="http://www.w3.org/2000/svg" xmlns:xlink="http://www.w3.org/1999/xlink" x="0px" y="0px"
	 viewBox="0 0 64 64" enable-background="new 0 0 64 64" xml:space="preserve">
<g>
	<g>
		<path fill="#CCCCCC" d="M31.8,4C19.1,4,9,14.1,9,26.4c0,5.6,5.6,13.7,9.2,17.7v0l0.2,0.6l-0.2,0c3.5,4,10.1,13.4,10.2,13.6
			c0.9,1.1,2.1,1.7,3.4,1.7c1.3,0,2.5-0.6,3.4-1.7c5.3-6.7,6.6-8.6,7.4-9.9c0.6-1,0.9-1.4,2.8-3.6c1-1.1,9.5-11.1,9.5-18.3
			C55,14.1,44.6,4,31.8,4z M42.7,42.5c-2.1,2.4-2.5,3-3.2,4c-0.8,1.2-2,3.1-7.2,9.6c-0.2,0.2-0.4,0.3-0.6,0.3
			c-0.2,0-0.4-0.1-0.5-0.3c-0.3-0.4-6.9-9.6-10.5-13.7c-3.3-3.8-8.5-11.5-8.5-16.1c0-10.4,8.8-19,19.5-19c10.8,0,19.5,8.5,19.5,19
			C51.4,30.7,46.9,37.7,42.7,42.5z M31.8,14.3c-5.9,0-10.8,4.7-10.8,10.4c0,5.7,4.8,10.4,10.8,10.4c5.9,0,10.7-4.7,10.7-10.4
			C42.6,19,37.8,14.3,31.8,14.3z M31.8,31.7c-3.9,0-7.2-3.1-7.2-6.9c0-3.8,3.2-6.9,7.2-6.9c3.9,0,7.1,3.1,7.1,6.9
			C39,28.6,35.8,31.7,31.8,31.7z"/>
	</g>
</g>
</svg>
