<?xml version="1.0" encoding="utf-8"?>
<!-- Generator: Adobe Illustrator 18.0.0, SVG Export Plug-In . SVG Version: 6.00 Build 0)  -->
<!DOCTYPE svg PUBLIC "-//W3C//DTD SVG 1.1//EN" "http://www.w3.org/Graphics/SVG/1.1/DTD/svg11.dtd">
<svg version="1.1" id="图层_1" xmlns="http://www.w3.org/2000/svg" xmlns:xlink="http://www.w3.org/1999/xlink" x="0px" y="0px"
	 viewBox="0 0 64 64" enable-background="new 0 0 64 64" xml:space="preserve">
<g>
	<g>
		<path fill="#FF8885" d="M53,4H11c-3.9,0-7,3.1-7,7v42c0,3.9,3.1,7,7,7h42c3.9,0,7-3.1,7-7V11C60,7.1,56.9,4,53,4z M56.5,53
			c0,1.9-1.6,3.5-3.5,3.5H11c-1.9,0-3.5-1.6-3.5-3.5V11c0-1.9,1.6-3.5,3.5-3.5h42c1.9,0,3.5,1.6,3.5,3.5V53z M49.5,16.3H19.7
			c-1,0-1.7,0.8-1.7,1.7c0,1,0.8,1.8,1.7,1.8h29.8c1,0,1.8-0.8,1.8-1.8C51.3,17,50.5,16.3,49.5,16.3z M49.5,30.2H19.7
			c-1,0-1.7,0.8-1.7,1.8c0,1,0.8,1.8,1.7,1.8h29.8c1,0,1.8-0.8,1.8-1.8C51.3,31,50.5,30.2,49.5,30.2z M49.5,44.3H19.7
			c-1,0-1.7,0.8-1.7,1.7c0,1,0.8,1.8,1.7,1.8h29.8c1,0,1.8-0.8,1.8-1.8C51.3,45,50.5,44.3,49.5,44.3z M12.8,19.8h3.5v-3.5h-3.5V19.8
			z M12.8,33.8h3.5v-3.5h-3.5V33.8z M12.8,47.8h3.5v-3.5h-3.5V47.8z"/>
	</g>
</g>
</svg>
