<?xml version="1.0" encoding="utf-8"?>
<!-- Generator: Adobe Illustrator 18.0.0, SVG Export Plug-In . SVG Version: 6.00 Build 0)  -->
<!DOCTYPE svg PUBLIC "-//W3C//DTD SVG 1.1//EN" "http://www.w3.org/Graphics/SVG/1.1/DTD/svg11.dtd">
<svg version="1.1" id="图层_1" xmlns="http://www.w3.org/2000/svg" xmlns:xlink="http://www.w3.org/1999/xlink" x="0px" y="0px"
	 viewBox="0 0 64 64" enable-background="new 0 0 64 64" xml:space="preserve">
<g>
	<g>
		<path fill="#549800" d="M43,23.8L28.8,38.3L21,30.4c-0.7-0.7-1.8-0.7-2.5,0c-0.7,0.7-0.7,1.8,0,2.5l9.1,9.1
			c0.3,0.3,0.8,0.5,1.2,0.5c0,0,0,0,0,0c0.5,0,0.9-0.2,1.2-0.5l15.4-15.8c0.7-0.7,0.7-1.8,0-2.5C44.8,23.1,43.7,23.1,43,23.8z M32,4
			C16.6,4,4,16.6,4,32s12.6,28,28,28c15.4,0,28-12.6,28-28S47.4,4,32,4z M32,56.5c-13.5,0-24.5-11-24.5-24.5
			c0-13.5,11-24.5,24.5-24.5c13.5,0,24.5,11,24.5,24.5C56.5,45.5,45.5,56.5,32,56.5z"/>
	</g>
</g>
</svg>
