<?xml version="1.0" encoding="utf-8"?>
<!-- Generator: Adobe Illustrator 18.0.0, SVG Export Plug-In . SVG Version: 6.00 Build 0)  -->
<!DOCTYPE svg PUBLIC "-//W3C//DTD SVG 1.1//EN" "http://www.w3.org/Graphics/SVG/1.1/DTD/svg11.dtd">
<svg version="1.1" id="图层_1" xmlns="http://www.w3.org/2000/svg" xmlns:xlink="http://www.w3.org/1999/xlink" x="0px" y="0px"
	 viewBox="0 0 64 64" enable-background="new 0 0 64 64" xml:space="preserve">
<g>
	<g>
		<g>
			<path fill-rule="evenodd" clip-rule="evenodd" fill="#808080" d="M32,4C16.6,4,4,16.6,4,32s12.6,28,28,28s28-12.6,28-28
				S47.4,4,32,4z M32,56.5c-13.5,0-24.5-11-24.5-24.5S18.5,7.5,32,7.5s24.5,11,24.5,24.5S45.5,56.5,32,56.5z M32,25
				c-1,0-1.8,0.8-1.8,1.8v21c0,1,0.8,1.8,1.8,1.8s1.8-0.8,1.8-1.8v-21C33.8,25.8,33,25,32,25z M32.9,18h-1.8c-0.5,0-0.9,0.4-0.9,0.9
				v1.8c0,0.5,0.4,0.9,0.9,0.9h1.8c0.5,0,0.9-0.4,0.9-0.9v-1.8C33.8,18.4,33.4,18,32.9,18z"/>
		</g>
	</g>
</g>
</svg>
