<?xml version="1.0" encoding="utf-8"?>
<!-- Generator: Adobe Illustrator 18.0.0, SVG Export Plug-In . SVG Version: 6.00 Build 0)  -->
<!DOCTYPE svg PUBLIC "-//W3C//DTD SVG 1.1//EN" "http://www.w3.org/Graphics/SVG/1.1/DTD/svg11.dtd">
<svg version="1.1" id="图层_1" xmlns="http://www.w3.org/2000/svg" xmlns:xlink="http://www.w3.org/1999/xlink" x="0px" y="0px"
	 viewBox="0 0 64 64" enable-background="new 0 0 64 64" xml:space="preserve">
<path d="M54.1,48.2c0-0.1,0-0.2,0-0.3c0-4.3-5.8-9.2-14.5-11.1c1.8-2.1,3.1-4.8,3.1-8v-8.4C42.7,13.9,38.1,9,32,9
	s-10.7,4.9-10.7,11.5v8.4c0,3.3,0.8,6.2,2.8,8.3c-7.4,1.9-14,6.1-14,10.8c0,0.1-0.1,0.2-0.1,0.3c-0.1,0.7-0.2,2.4,1.6,3.4
	c4,2.1,11.6,3.3,20.4,3.3s16.4-1.2,20.4-3.4C54.3,50.6,54.2,48.9,54.1,48.2z M24.1,28.8v-8.4c0-4.9,3.4-8.6,7.9-8.6s7.9,3.7,7.9,8.6
	v8.4c0,4.9-3.4,8.6-7.9,8.6S24.1,33.8,24.1,28.8z M51.1,49c-3.6,1.8-10.9,3-19.1,3s-15.6-1.1-19.1-3c-0.1,0-0.1-0.1-0.2-0.1
	c0-0.1,0-0.2,0-0.4c0-0.2,0-0.4,0-0.6c0-2.5,5.7-7.1,14.1-8.5c1.4,0.7,2.9,1,4.5,1c1.7,0,3.4-0.4,4.8-1.1c8.9,1.2,15,6,15,8.7
	c0,0.2,0,0.4,0,0.6s0,0.4,0.1,0.4C51.3,48.9,51.2,48.9,51.1,49z"/>
</svg>
