<?xml version="1.0" encoding="utf-8"?>
<!-- Generator: Adobe Illustrator 18.0.0, SVG Export Plug-In . SVG Version: 6.00 Build 0)  -->
<!DOCTYPE svg PUBLIC "-//W3C//DTD SVG 1.1//EN" "http://www.w3.org/Graphics/SVG/1.1/DTD/svg11.dtd">
<svg version="1.1" id="图层_1" xmlns="http://www.w3.org/2000/svg" xmlns:xlink="http://www.w3.org/1999/xlink" x="0px" y="0px"
	 viewBox="0 0 64 64" enable-background="new 0 0 64 64" xml:space="preserve">
<g>
	<g>
		<path fill-rule="evenodd" clip-rule="evenodd" fill="#D1D1D1" d="M17.9,20.8l28.1,0c1.5,0,2.8-1.3,2.8-2.8c0-1.5-1.3-2.8-2.8-2.8
			l-28.1,0c-1.5,0-2.8,1.3-2.8,2.8C15.1,19.6,16.4,20.8,17.9,20.8z M57.2,39.8l0-33.5c-0.2-2.8-2.6-5.1-5.5-5.1l-39.7,0
			C9,1.5,6.8,3.9,6.8,6.8v3h0l0,44.5h0v3c0,3.1,2.5,5.6,5.6,5.6h2.8v0l8.3,0c1.5,0,2.8-1.3,2.8-2.8c0-1.5-1.3-2.8-2.8-2.8l-8.9,0
			l3.4-0.1c-4.5,0-5.6-0.8-5.6-5.6l0,5.7l0,0l0-50.4l0.1,0l0,5.6c0-4.8,1.1-5.6,5.6-5.6l-1.8,0l32.4,0L46,6.9c4.2,0,5.4,0.7,5.6,4.6
			l0,26.1l-11,0v0h-3c-3.1,0-5.6,2.5-5.6,5.6V46h0l0,13.5c-0.2,0.9,0.1,1.8,0.8,2.5c0.3,0.3,0.6,0.5,0.9,0.6
			c0.3,0.1,0.7,0.2,1.1,0.2c1,0,1.8-0.5,2.3-1.3l18.7-18.8c0.1,0,0.1-0.1,0.1-0.1c0.1-0.1,0.2-0.1,0.2-0.2c0,0,0.1-0.1,0.1-0.1
			c0.6-0.5,0.9-1.3,0.9-2.1C57.3,40.2,57.2,40,57.2,39.8z M51.6,6.8L51.6,6.8l0,1.9L51.6,6.8z M37.6,53.2l0-4.7c0-4.2,1-5.3,5.7-5.3
			l-5.6,0l0,5l0-5l10,0L37.6,53.2z M17.9,32L46,32c1.5,0,2.8-1.3,2.8-2.8c0-1.5-1.3-2.8-2.8-2.8l-28.1,0c-1.5,0-2.8,1.3-2.8,2.8
			C15.1,30.8,16.4,32,17.9,32z"/>
	</g>
</g>
</svg>
