<?xml version="1.0" encoding="utf-8"?>
<!-- Generator: Adobe Illustrator 18.0.0, SVG Export Plug-In . SVG Version: 6.00 Build 0)  -->
<!DOCTYPE svg PUBLIC "-//W3C//DTD SVG 1.1//EN" "http://www.w3.org/Graphics/SVG/1.1/DTD/svg11.dtd">
<svg version="1.1" id="图层_1" xmlns="http://www.w3.org/2000/svg" xmlns:xlink="http://www.w3.org/1999/xlink" x="0px" y="0px"
	 viewBox="0 0 64 64" enable-background="new 0 0 64 64" xml:space="preserve">
<g>
	<path d="M57.9,56.7c0,0.7-0.5,1.2-1.2,1.2H7.3c-0.7,0-1.2-0.5-1.2-1.2V19c0-0.7,0.5-1.2,1.2-1.2h49.4c0.7,0,1.2,0.5,1.2,1.2V56.7z
		 M8.5,55.5h47.1V20.2H8.5V55.5z"/>
	<g>
		<path d="M32,45c-5.1,0-10.3-0.5-17.9-1.7c-0.6-0.1-1-0.6-1-1.2V25.2c0-0.6,0.4-1.1,1-1.2c7.6-1.2,12.8-1.7,17.8-1.7
			c5.1,0,10.2,0.5,17.8,1.7c0.6,0.1,1,0.6,1,1.2v16.9c0,0.6-0.4,1.1-1,1.2C42.3,44.5,37.1,45,32,45z M15.5,41.1
			c7.1,1.1,11.7,1.5,16.5,1.5c4.7,0,9.4-0.4,16.5-1.5V26.3c-7.1-1.1-11.7-1.5-16.5-1.5c-4.7,0-9.4,0.4-16.5,1.5V41.1z"/>
	</g>
	<path d="M49.3,53.4c-1.9,0-3.5-1.6-3.5-3.5c0-1.9,1.6-3.5,3.5-3.5c1.9,0,3.5,1.6,3.5,3.5C52.9,51.8,51.3,53.4,49.3,53.4z
		 M49.3,48.7c-0.6,0-1.2,0.5-1.2,1.2c0,0.6,0.5,1.2,1.2,1.2c0.6,0,1.2-0.5,1.2-1.2C50.5,49.2,50,48.7,49.3,48.7z"/>
	<path d="M16.4,53.4c-1.9,0-3.5-1.6-3.5-3.5c0-1.9,1.6-3.5,3.5-3.5c1.9,0,3.5,1.6,3.5,3.5C19.9,51.8,18.3,53.4,16.4,53.4z
		 M16.4,48.7c-0.6,0-1.2,0.5-1.2,1.2c0,0.6,0.5,1.2,1.2,1.2c0.6,0,1.2-0.5,1.2-1.2C17.6,49.2,17,48.7,16.4,48.7z"/>
	<path d="M37.9,53.1h-9.4c-0.7,0-1.2-0.5-1.2-1.2s0.5-1.2,1.2-1.2h9.4c0.7,0,1.2,0.5,1.2,1.2S38.6,53.1,37.9,53.1z"/>
	<path d="M14.4,60.2H12c-0.7,0-1.2-0.5-1.2-1.2c0-0.7,0.5-1.2,1.2-1.2h2.4c0.7,0,1.2,0.5,1.2,1.2C15.6,59.7,15,60.2,14.4,60.2z"/>
	<path d="M54.4,60.2H52c-0.7,0-1.2-0.5-1.2-1.2c0-0.7,0.5-1.2,1.2-1.2h2.4c0.7,0,1.2,0.5,1.2,1.2C55.6,59.7,55,60.2,54.4,60.2z"/>
	<path d="M38.7,18.3c-0.6,0-1.2-0.5-1.2-1.2c0-2.6-2.1-4.8-4.8-4.8c-2.6,0-4.8,2.1-4.8,4.8c0,0.7-0.5,1.2-1.2,1.2
		c-0.7,0-1.2-0.5-1.2-1.2c0-3.9,3.2-7.1,7.1-7.1c3.9,0,7.1,3.2,7.1,7.1C39.9,17.8,39.4,18.3,38.7,18.3z"/>
	<path d="M30.4,12.9c-0.3,0-0.6-0.1-0.8-0.3l-6.9-6.3c-0.5-0.4-0.5-1.2-0.1-1.7c0.4-0.5,1.2-0.5,1.7-0.1l6.9,6.3
		c0.5,0.4,0.5,1.2,0.1,1.7C31,12.7,30.7,12.9,30.4,12.9z"/>
	<path d="M37.5,12.9c-0.3,0-0.6-0.1-0.9-0.4c-0.4-0.5-0.4-1.2,0.1-1.7l6.9-6.3c0.5-0.4,1.2-0.4,1.7,0.1c0.4,0.5,0.4,1.2-0.1,1.7
		l-6.9,6.3C38.1,12.8,37.8,12.9,37.5,12.9z"/>
</g>
</svg>
