<?xml version="1.0" encoding="utf-8"?>
<!-- Generator: Adobe Illustrator 18.0.0, SVG Export Plug-In . SVG Version: 6.00 Build 0)  -->
<!DOCTYPE svg PUBLIC "-//W3C//DTD SVG 1.1//EN" "http://www.w3.org/Graphics/SVG/1.1/DTD/svg11.dtd">
<svg version="1.1" id="图层_1" xmlns="http://www.w3.org/2000/svg" xmlns:xlink="http://www.w3.org/1999/xlink" x="0px" y="0px"
	 viewBox="0 0 64 64" enable-background="new 0 0 64 64" xml:space="preserve">
<g>
	<g>
		<g>
			<path fill-rule="evenodd" clip-rule="evenodd" d="M54.5,18.6c0-3-2.4-5.5-5.5-5.5H23.8c0,0,0,0,0,0c-0.6,0-1.1,0.5-1.1,1.1
				s0.5,1.1,1.1,1.1c0,0,0,0,0,0h25.8c1.5,0,2.7,1.2,2.7,2.7v23.4c0,0.2,0,0.3-0.1,0.5h0.1c0,0,0,0,0,0c0,0.6,0.5,1.1,1.1,1.1
				s1.1-0.5,1.1-1.1c0-0.1,0-0.2-0.1-0.3c0-0.2,0.1-0.5,0.1-0.7V18.6z M44.7,17.6H17.1c-3,0-5.5,2.4-5.5,5.5v22.4
				c0,3,2.4,5.5,5.5,5.5h8.4l3.8,3.8c0.9,0.9,2.2,0.9,3.1,0l3.8-3.8h8.4c3,0,5.5-2.4,5.5-5.5V23C50.1,20,47.7,17.6,44.7,17.6z
				 M22.1,35.3c-0.9,0-1.6-0.7-1.6-1.7s0.7-1.7,1.6-1.7c0.9,0,1.6,0.7,1.6,1.7S23,35.3,22.1,35.3z M30.9,35.3
				c-0.9,0-1.6-0.7-1.6-1.7S30,32,30.9,32c0.9,0,1.6,0.7,1.6,1.7S31.8,35.3,30.9,35.3z M39.7,35.3c-0.9,0-1.6-0.7-1.6-1.7
				s0.7-1.7,1.6-1.7s1.6,0.7,1.6,1.7S40.6,35.3,39.7,35.3z"/>
		</g>
	</g>
</g>
</svg>
