<?xml version="1.0" encoding="utf-8"?>
<!-- Generator: Adobe Illustrator 18.0.0, SVG Export Plug-In . SVG Version: 6.00 Build 0)  -->
<!DOCTYPE svg PUBLIC "-//W3C//DTD SVG 1.1//EN" "http://www.w3.org/Graphics/SVG/1.1/DTD/svg11.dtd">
<svg version="1.1" id="图层_1" xmlns="http://www.w3.org/2000/svg" xmlns:xlink="http://www.w3.org/1999/xlink" x="0px" y="0px"
	 viewBox="0 0 64 64" enable-background="new 0 0 64 64" xml:space="preserve">
<path d="M53.2,28.9L36,10.7C35,9.6,33.5,9,32,9c-1.5,0-3,0.6-4,1.7L10.8,28.9c-1.8,1.9-1.5,3.5-1.3,4.2c0.2,0.5,0.9,1.8,2.9,1.8H15
	v14c0,3.2,2.2,6.2,5.4,6.2h2.9h4.4v-3.3V40.2c0-1.6-0.2-2.5,1.4-2.5H32h2.9c1.6,0,1.4,0.9,1.4,2.5v11.5V55h4.4h2.9
	c3.2,0,5.4-3,5.4-6.2v-14h2.5c2,0,2.7-1.3,2.9-1.8C54.8,32.4,55,30.8,53.2,28.9z M51.5,32h-2.2h-1.4h-1.7v16.8c0,1.6-1,3.3-2.6,3.3
	h-4.5V40.2c0-3.2-1-5.3-4.2-5.3H32h-2.9c-3.2,0-4.2,2.2-4.2,5.3v11.9h-4.5c-1.6,0-2.6-1.7-2.6-3.3V32h-1.7h-1.4h-2.2
	c0,0-0.1-0.2-0.1-0.2c0.1-0.2,0.3-0.6,0.5-0.9l17.2-18.1c0.5-0.5,1.2-0.9,1.9-0.9c0.7,0,1.4,0.3,1.9,0.9l17.2,18.1
	c0.3,0.3,0.4,0.7,0.5,0.9C51.6,31.8,51.6,32,51.5,32z"/>
</svg>
