<?xml version="1.0" encoding="utf-8"?>
<!-- Generator: Adobe Illustrator 18.0.0, SVG Export Plug-In . SVG Version: 6.00 Build 0)  -->
<!DOCTYPE svg PUBLIC "-//W3C//DTD SVG 1.1//EN" "http://www.w3.org/Graphics/SVG/1.1/DTD/svg11.dtd">
<svg version="1.1" id="图层_1" xmlns="http://www.w3.org/2000/svg" xmlns:xlink="http://www.w3.org/1999/xlink" x="0px" y="0px"
	 viewBox="0 0 64 64" enable-background="new 0 0 64 64" xml:space="preserve">
<g>
	<g>
		<path fill="#808080" d="M32.5,42.2c1,0,1.9,0.8,1.9,1.9v0.5c0,1-0.8,1.9-1.9,1.9l0,0c-1,0-1.9-0.8-1.9-1.9v-0.5
			C30.6,43.1,31.4,42.2,32.5,42.2L32.5,42.2L32.5,42.2z"/>
		<path fill="#808080" d="M23.8,27.3c0,0,0.1,1.3,1.6,1.3c1.4,0,1.5-1.3,1.5-1.3c-0.1-4.2,1.8-6.2,5.8-6c2.6,0.3,4,1.8,4.1,4.5
			c-0.2,1.2-1.2,2.7-3,4.6c-2.4,2.4-3.5,4.5-3.5,6.4v1.9c0,0,0.2,1.2,1.5,1.2c1.3,0,1.5-1.2,1.5-1.2v-1.3c0-1.6,1.1-3.5,3.4-5.7
			c2.4-2.2,3.5-4.2,3.5-6c-0.2-5-2.8-7.5-7.8-7.7C26.7,18,23.8,21.1,23.8,27.3L23.8,27.3z"/>
	</g>
	<path fill="#808080" d="M60,33.7"/>
	<path fill="#808080" d="M32,4C16.5,4,4,16.5,4,32c0,15.5,12.5,28,28,28c15.5,0,28-12.5,28-28C60,16.5,47.5,4,32,4z M32,57.3
		C18,57.3,6.7,46,6.7,32C6.7,18,18,6.7,32,6.7C46,6.7,57.3,18,57.3,32C57.3,46,46,57.3,32,57.3z"/>
</g>
</svg>
