<?xml version="1.0" encoding="utf-8"?>
<!-- Generator: Adobe Illustrator 18.0.0, SVG Export Plug-In . SVG Version: 6.00 Build 0)  -->
<!DOCTYPE svg PUBLIC "-//W3C//DTD SVG 1.1//EN" "http://www.w3.org/Graphics/SVG/1.1/DTD/svg11.dtd">
<svg version="1.1" id="图层_1" xmlns="http://www.w3.org/2000/svg" xmlns:xlink="http://www.w3.org/1999/xlink" x="0px" y="0px"
	 viewBox="0 0 64 64" enable-background="new 0 0 64 64" xml:space="preserve">
<g>
	<g>
		<path d="M57.4,28.7L32.9,9.5c-0.7-0.5-1.3-0.5-2,0L6.4,28.7c-0.7,0.5-0.8,1.6-0.4,2.4s1.5,1,2.3,0.4l3.3-2.4v24
			c0,1,0.7,1.8,1.7,1.8h13.3c1,0,1.7-0.8,1.7-1.8V36.7h7.7V53c0,1,0.7,1.8,1.7,1.8h13.3c1,0,1.7-0.8,1.7-1.8V29l3.3,2.4
			c0.4,0.2,0.7,0.4,1,0.4c0.5,0,1-0.4,1.3-0.7C58.3,30.3,58.1,29.1,57.4,28.7z M48.9,51.2h-10V34.8c0-1-0.7-1.8-1.7-1.8H26.3
			c-1,0-1.7,0.8-1.7,1.8v16.3h-9.9V26.3l17.2-13.3l17,13.3V51.2z"/>
	</g>
</g>
</svg>
