<?xml version="1.0" encoding="utf-8"?>
<!-- Generator: Adobe Illustrator 18.0.0, SVG Export Plug-In . SVG Version: 6.00 Build 0)  -->
<!DOCTYPE svg PUBLIC "-//W3C//DTD SVG 1.1//EN" "http://www.w3.org/Graphics/SVG/1.1/DTD/svg11.dtd">
<svg version="1.1" id="图层_1" xmlns="http://www.w3.org/2000/svg" xmlns:xlink="http://www.w3.org/1999/xlink" x="0px" y="0px"
	 viewBox="0 0 64 64" enable-background="new 0 0 64 64" xml:space="preserve">
<g>
	<g>
		<g>
			<path fill-rule="evenodd" clip-rule="evenodd" d="M32.1,7.1c7.4,0,13.4,5.9,13.8,13.3h3C48.6,11.3,41.2,4,32.1,4
				s-16.5,7.3-16.8,16.4h3C18.6,13,24.7,7.1,32.1,7.1z M52.8,21.8H11.2c-3.1,0-5.6,2.4-5.6,5.5l5.6,27.3c0,3,2.5,5.5,5.6,5.5h30.6
				c3.1,0,5.6-2.4,5.6-5.5l5.6-27.3C58.4,24.2,55.9,21.8,52.8,21.8z M19.5,35.4c-1.5,0-2.8-1.2-2.8-2.7c0-1.5,1.2-2.7,2.8-2.7
				c1.5,0,2.8,1.2,2.8,2.7C22.3,34.2,21,35.4,19.5,35.4z M44.5,35.4c-1.5,0-2.8-1.2-2.8-2.7c0-1.5,1.2-2.7,2.8-2.7
				c1.5,0,2.8,1.2,2.8,2.7C47.3,34.2,46,35.4,44.5,35.4z"/>
		</g>
	</g>
</g>
</svg>
