<?xml version="1.0" encoding="utf-8"?>
<!-- Generator: Adobe Illustrator 18.0.0, SVG Export Plug-In . SVG Version: 6.00 Build 0)  -->
<!DOCTYPE svg PUBLIC "-//W3C//DTD SVG 1.1//EN" "http://www.w3.org/Graphics/SVG/1.1/DTD/svg11.dtd">
<svg version="1.1" id="图层_1" xmlns="http://www.w3.org/2000/svg" xmlns:xlink="http://www.w3.org/1999/xlink" x="0px" y="0px"
	 viewBox="0 0 64 64" enable-background="new 0 0 64 64" xml:space="preserve">
<g>
	<g>
		<g>
			<path fill="#B2B2B2" d="M44,59.5H20c-4.7,0-8.5-3.8-8.5-8.5V14.5h41V51C52.5,55.7,48.7,59.5,44,59.5z M12.5,15.5V51
				c0,4.1,3.4,7.5,7.5,7.5h24c4.1,0,7.5-3.4,7.5-7.5V15.5H12.5z"/>
		</g>
		<g>
			<path fill="#B2B2B2" d="M44,60.5H20c-5.2,0-9.5-4.3-9.5-9.5V13.5h43V51C53.5,56.2,49.2,60.5,44,60.5z M11.5,14.5V51
				c0,4.7,3.8,8.5,8.5,8.5h24c4.7,0,8.5-3.8,8.5-8.5V14.5H11.5z M44,58.5H20c-4.1,0-7.5-3.4-7.5-7.5V15.5h39V51
				C51.5,55.1,48.1,58.5,44,58.5z M13.5,16.5V51c0,3.6,2.9,6.5,6.5,6.5h24c3.6,0,6.5-2.9,6.5-6.5V16.5H13.5z"/>
		</g>
	</g>
	<g>
		<g>
			<path fill="#FFFFFF" d="M40,14H24v-4c0-2.2,1.8-4,4-4h8c2.2,0,4,1.8,4,4V14z"/>
		</g>
		<g>
			<path fill="#B2B2B2" d="M41,15H23v-5c0-2.8,2.2-5,5-5h8c2.8,0,5,2.2,5,5V15z M25,13h14v-3c0-1.7-1.3-3-3-3h-8c-1.7,0-3,1.3-3,3
				V13z"/>
		</g>
	</g>
	<g>
		<g>
			<path fill="#B2B2B2" d="M60,15H4c-0.6,0-1-0.4-1-1s0.4-1,1-1h56c0.6,0,1,0.4,1,1S60.6,15,60,15z"/>
		</g>
	</g>
	<g>
		<g>
			<path fill="#B2B2B2" d="M32,47c-0.6,0-1-0.4-1-1V23.3c0-0.6,0.4-1,1-1c0.6,0,1,0.4,1,1V46C33,46.6,32.6,47,32,47z"/>
		</g>
	</g>
	<g>
		<g>
			<path fill="#B2B2B2" d="M21.3,44.3c-0.6,0-1-0.4-1-1V26c0-0.6,0.4-1,1-1s1,0.4,1,1v17.3C22.3,43.9,21.9,44.3,21.3,44.3z"/>
		</g>
	</g>
	<g>
		<g>
			<path fill="#B2B2B2" d="M41.3,44.3c-0.6,0-1-0.4-1-1V26c0-0.6,0.4-1,1-1s1,0.4,1,1v17.3C42.3,43.9,41.9,44.3,41.3,44.3z"/>
		</g>
	</g>
</g>
</svg>
