<svg xmlns="http://www.w3.org/2000/svg" viewBox="0 0 64 64" enable-background="new 0 0 64 64"><path fill-rule="evenodd" clip-rule="evenodd" fill="#8DA9F2" d="M9.6 4h44.8C57.5 4 60 6.5 60 9.6v44.8c0 3.1-2.5 5.6-5.6 5.6H9.6C6.5 60 4 57.5 4 54.4V9.6C4 6.5 6.5 4 9.6 4z"/><path fill-rule="evenodd" clip-rule="evenodd" fill="#fff" d="M50.5 47.8h-37c-1.4 0-2.5-1.1-2.5-2.4V18.7c0-1.3 1.1-2.4 2.5-2.4h36.9c1.4 0 2.5 1.1 2.5 2.4v26.7c.1 1.3-1 2.4-2.4 2.4zm-34.2-8.3c0 .2.2.4.4.4h7.6c.2 0 .4-.2.4-.4v-1.2c0-.2-.2-.4-.4-.4h-7.6c-.2 0-.4.2-.4.4v1.2zm31.5-15c0-.2-.2-.4-.4-.4H16.6c-.2 0-.4.2-.4.4v1.2c0 .2.2.4.4.4h30.7c.2 0 .4-.2.4-.4v-1.2z"/></svg>