<svg xmlns="http://www.w3.org/2000/svg" viewBox="0 0 64 64" enable-background="new 0 0 64 64"><path fill-rule="evenodd" clip-rule="evenodd" fill="#CA94F0" d="M9.6 4h44.8C57.5 4 60 6.5 60 9.6v44.8c0 3.1-2.5 5.6-5.6 5.6H9.6C6.5 60 4 57.5 4 54.4V9.6C4 6.5 6.5 4 9.6 4z"/><path fill-rule="evenodd" clip-rule="evenodd" fill="#fff" d="M19.8 16.4l-3 3c-1.6 1.7-.9 3.6 0 6 0 0 4.1 7 9.4 12.4 5.6 5.7 12.2 9.4 12.2 9.4 2.2 1.1 4.3 1.7 6 0l3-3c.8-.8 1-2.3 0-3l-6-4.5c-1-.7-2.2-.8-3 0l-1.8 1.8c-2.1-1.6-4.4-3.4-6.4-5.5-1.8-1.8-3.5-3.8-4.8-5.7l1.8-1.8c.8-.8.7-2 0-3l-4.5-6c-.7-.9-2-.9-2.9-.1"/></svg>