<svg xmlns="http://www.w3.org/2000/svg" viewBox="0 0 64 64" enable-background="new 0 0 64 64"><path fill-rule="evenodd" clip-rule="evenodd" fill="#F5B75C" d="M9.6 4h44.8C57.5 4 60 6.5 60 9.6v44.8c0 3.1-2.5 5.6-5.6 5.6H9.6C6.5 60 4 57.5 4 54.4V9.6C4 6.5 6.5 4 9.6 4z"/><path fill-rule="evenodd" clip-rule="evenodd" fill="#fff" d="M44.2 17.9H30.8c-3.5 0-6.3 2.8-6.3 6.3v.1l-7.4 4.5c-3.7 1.8-4.3 3.7-4.6 6.4v9.1c0 2 1.7 3.6 3.7 3.6h1.9c.4 2.6 2.7 4.6 5.5 4.6s5-2 5.5-4.6h5.7c.4 2.6 2.7 4.6 5.5 4.6s5.2-2.1 5.5-4.8c2.7-.7 4.7-3.2 4.7-6.1V24.2c0-3.5-2.8-6.3-6.3-6.3zM19 37c-1 0-1.9-.8-1.9-1.8h6.5c.5 0 .9-.4.9-.9v-6.4c1 0 1.9.8 1.9 1.8v5.5c0 1-.8 1.8-1.9 1.8H19zm4.7 13.9c-1.8 0-3.4-1.2-3.8-2.9h7.5c-.4 1.6-1.9 2.9-3.7 2.9zm16.6 0c-1.8 0-3.4-1.2-3.8-2.9H44c-.3 1.6-1.8 2.9-3.7 2.9z"/></svg>