<svg xmlns="http://www.w3.org/2000/svg" viewBox="0 0 64 64" enable-background="new 0 0 64 64"><g fill="#808080"><path d="M32.5 42.2c1 0 1.9.8 1.9 1.9v.5c0 1-.8 1.9-1.9 1.9-1 0-1.9-.8-1.9-1.9v-.5c0-1 .8-1.9 1.9-1.9zM23.8 27.3s.1 1.3 1.6 1.3c1.4 0 1.5-1.3 1.5-1.3-.1-4.2 1.8-6.2 5.8-6 2.6.3 4 1.8 4.1 4.5-.2 1.2-1.2 2.7-3 4.6-2.4 2.4-3.5 4.5-3.5 6.4v1.9s.2 1.2 1.5 1.2 1.5-1.2 1.5-1.2v-1.3c0-1.6 1.1-3.5 3.4-5.7 2.4-2.2 3.5-4.2 3.5-6-.2-5-2.8-7.5-7.8-7.7-5.7 0-8.6 3.1-8.6 9.3zM60 33.7"/><path d="M32 4C16.5 4 4 16.5 4 32s12.5 28 28 28 28-12.5 28-28S47.5 4 32 4zm0 53.3C18 57.3 6.7 46 6.7 32S18 6.7 32 6.7 57.3 18 57.3 32 46 57.3 32 57.3z"/></g></svg>