<svg xmlns="http://www.w3.org/2000/svg" viewBox="0 0 64 64" enable-background="new 0 0 64 64"><path fill-rule="evenodd" clip-rule="evenodd" d="M55.1 12.4C46.8 4.1 38.6 7.7 32 13.6 25.4 7.7 17.3 4 8.9 12.4c-6.5 6.5-6.6 17 0 23.4l23 20.7s0 .1 23.2-20.7c6.6-6.4 6.5-16.9 0-23.4zM52.6 33C40.2 43.9 34.5 49.8 31.9 52c-2.6-2.3-8.4-8.2-20.7-19.2-2.4-2.3-3.7-5.5-3.7-8.9 0-3.5 1.4-6.7 3.9-9.2 2.6-2.6 5.1-3.8 7.8-3.8 3.1 0 6.6 1.7 10.5 5.2l2.3 2.1 2.3-2.1c3.8-3.4 7.4-5.1 10.5-5.1 2.7 0 5.2 1.2 7.8 3.8 2.5 2.5 3.9 5.7 3.9 9.2 0 3.4-1.4 6.6-3.9 9z"/></svg>