<svg xmlns="http://www.w3.org/2000/svg" viewBox="0 0 64 64" enable-background="new 0 0 64 64"><path fill="#808080" d="M31.9 61c-.8 0-1.7-.3-2.4-.8l-12.4-9.1C10 45.8 6 37.8 6 29.1V13.7c.3-1.7 1.4-3.1 2.9-3.6l21.4-6.9c1.1-.4 2.2-.4 3.3 0L55 10.1c1.6.5 2.7 2 2.7 3.8v15.2c0 8.7-4 16.7-11.1 22l-12.4 9.1c-.6.5-1.5.8-2.3.8zM8 14v15.1c0 8.1 3.8 15.5 10.3 20.4l12.4 9.1c.7.5 1.6.5 2.3 0l12.4-9.1c6.5-4.9 10.3-12.3 10.3-20.4V13.9c0-.9-.5-1.6-1.3-1.9L33 5.2c-.7-.2-1.4-.2-2.1 0L9.5 12.1c-.8.2-1.3 1.1-1.5 1.9zM45.1 27.2H18.9c-.6 0-1-.4-1-1s.4-1 1-1h26.2c.6 0 1 .4 1 1s-.4 1-1 1zM32 44.7c-.6 0-1-.4-1-1V14.5c0-.6.4-1 1-1s1 .4 1 1v29.2c0 .6-.4 1-1 1z"/></svg>