<svg xmlns="http://www.w3.org/2000/svg" viewBox="0 0 64 64" enable-background="new 0 0 64 64"><path fill="#B2B2B2" d="M44 59.5H20c-4.7 0-8.5-3.8-8.5-8.5V14.5h41V51c0 4.7-3.8 8.5-8.5 8.5zm-31.5-44V51c0 4.1 3.4 7.5 7.5 7.5h24c4.1 0 7.5-3.4 7.5-7.5V15.5h-39zM44 60.5H20c-5.2 0-9.5-4.3-9.5-9.5V13.5h43V51c0 5.2-4.3 9.5-9.5 9.5zm-32.5-46V51c0 4.7 3.8 8.5 8.5 8.5h24c4.7 0 8.5-3.8 8.5-8.5V14.5h-41zm32.5 44H20c-4.1 0-7.5-3.4-7.5-7.5V15.5h39V51c0 4.1-3.4 7.5-7.5 7.5zm-30.5-42V51c0 3.6 2.9 6.5 6.5 6.5h24c3.6 0 6.5-2.9 6.5-6.5V16.5h-37z"/><path fill="#fff" d="M40 14H24v-4c0-2.2 1.8-4 4-4h8c2.2 0 4 1.8 4 4v4z"/><path fill="#B2B2B2" d="M41 15H23v-5c0-2.8 2.2-5 5-5h8c2.8 0 5 2.2 5 5v5zm-16-2h14v-3c0-1.7-1.3-3-3-3h-8c-1.7 0-3 1.3-3 3v3zM60 15H4c-.6 0-1-.4-1-1s.4-1 1-1h56c.6 0 1 .4 1 1s-.4 1-1 1zM32 47c-.6 0-1-.4-1-1V23.3c0-.6.4-1 1-1s1 .4 1 1V46c0 .6-.4 1-1 1zM21.3 44.3c-.6 0-1-.4-1-1V26c0-.6.4-1 1-1s1 .4 1 1v17.3c0 .6-.4 1-1 1zM41.3 44.3c-.6 0-1-.4-1-1V26c0-.6.4-1 1-1s1 .4 1 1v17.3c0 .6-.4 1-1 1z"/></svg>