<svg xmlns="http://www.w3.org/2000/svg" viewBox="0 0 64 64" enable-background="new 0 0 64 64"><path fill-rule="evenodd" clip-rule="evenodd" fill="#D1D1D1" d="M17.9 20.8H46c1.5 0 2.8-1.3 2.8-2.8 0-1.5-1.3-2.8-2.8-2.8H17.9c-1.5 0-2.8 1.3-2.8 2.8 0 1.6 1.3 2.8 2.8 2.8zm39.3 19V6.3c-.2-2.8-2.6-5.1-5.5-5.1H12c-3 .3-5.2 2.7-5.2 5.6v50.5c0 3.1 2.5 5.6 5.6 5.6H23.5c1.5 0 2.8-1.3 2.8-2.8 0-1.5-1.3-2.8-2.8-2.8h-8.9l3.4-.1c-4.5 0-5.6-.8-5.6-5.6v5.7V6.9h.1v5.6c0-4.8 1.1-5.6 5.6-5.6h-1.8 32.4H46c4.2 0 5.4.7 5.6 4.6v26.1h-14c-3.1 0-5.6 2.5-5.6 5.6v16.3c-.2.9.1 1.8.8 2.5.3.3.6.5.9.6.3.1.7.2 1.1.2 1 0 1.8-.5 2.3-1.3l18.7-18.8c.1 0 .1-.1.1-.1.1-.1.2-.1.2-.2l.1-.1c.6-.5.9-1.3.9-2.1.2 0 .1-.2.1-.4zm-5.6-33v1.9-1.9zm-14 46.4v-4.7c0-4.2 1-5.3 5.7-5.3h-5.6v5-5h10l-10.1 10zM17.9 32H46c1.5 0 2.8-1.3 2.8-2.8 0-1.5-1.3-2.8-2.8-2.8H17.9c-1.5 0-2.8 1.3-2.8 2.8 0 1.6 1.3 2.8 2.8 2.8z"/></svg>