<svg xmlns="http://www.w3.org/2000/svg" viewBox="0 0 64 64" enable-background="new 0 0 64 64"><path d="M57.9 56.7c0 .7-.5 1.2-1.2 1.2H7.3c-.7 0-1.2-.5-1.2-1.2V19c0-.7.5-1.2 1.2-1.2h49.4c.7 0 1.2.5 1.2 1.2v37.7zM8.5 55.5h47.1V20.2H8.5v35.3zM32 45c-5.1 0-10.3-.5-17.9-1.7-.6-.1-1-.6-1-1.2V25.2c0-.6.4-1.1 1-1.2 7.6-1.2 12.8-1.7 17.8-1.7 5.1 0 10.2.5 17.8 1.7.6.1 1 .6 1 1.2v16.9c0 .6-.4 1.1-1 1.2C42.3 44.5 37.1 45 32 45zm-16.5-3.9c7.1 1.1 11.7 1.5 16.5 1.5 4.7 0 9.4-.4 16.5-1.5V26.3c-7.1-1.1-11.7-1.5-16.5-1.5-4.7 0-9.4.4-16.5 1.5v14.8zM49.3 53.4c-1.9 0-3.5-1.6-3.5-3.5s1.6-3.5 3.5-3.5 3.5 1.6 3.5 3.5c.1 1.9-1.5 3.5-3.5 3.5zm0-4.7c-.6 0-1.2.5-1.2 1.2 0 .6.5 1.2 1.2 1.2.6 0 1.2-.5 1.2-1.2s-.5-1.2-1.2-1.2zM16.4 53.4c-1.9 0-3.5-1.6-3.5-3.5s1.6-3.5 3.5-3.5 3.5 1.6 3.5 3.5-1.6 3.5-3.5 3.5zm0-4.7c-.6 0-1.2.5-1.2 1.2 0 .6.5 1.2 1.2 1.2.6 0 1.2-.5 1.2-1.2s-.6-1.2-1.2-1.2zM37.9 53.1h-9.4c-.7 0-1.2-.5-1.2-1.2s.5-1.2 1.2-1.2h9.4c.7 0 1.2.5 1.2 1.2s-.5 1.2-1.2 1.2zM14.4 60.2H12c-.7 0-1.2-.5-1.2-1.2s.5-1.2 1.2-1.2h2.4c.7 0 1.2.5 1.2 1.2s-.6 1.2-1.2 1.2zM54.4 60.2H52c-.7 0-1.2-.5-1.2-1.2s.5-1.2 1.2-1.2h2.4c.7 0 1.2.5 1.2 1.2s-.6 1.2-1.2 1.2zM38.7 18.3c-.6 0-1.2-.5-1.2-1.2 0-2.6-2.1-4.8-4.8-4.8-2.6 0-4.8 2.1-4.8 4.8 0 .7-.5 1.2-1.2 1.2s-1.2-.5-1.2-1.2c0-3.9 3.2-7.1 7.1-7.1 3.9 0 7.1 3.2 7.1 7.1.2.7-.3 1.2-1 1.2zM30.4 12.9c-.3 0-.6-.1-.8-.3l-6.9-6.3c-.5-.4-.5-1.2-.1-1.7s1.2-.5 1.7-.1l6.9 6.3c.5.4.5 1.2.1 1.7-.3.2-.6.4-.9.4zM37.5 12.9c-.3 0-.6-.1-.9-.4-.4-.5-.4-1.2.1-1.7l6.9-6.3c.5-.4 1.2-.4 1.7.1.4.5.4 1.2-.1 1.7l-6.9 6.3c-.2.2-.5.3-.8.3z"/></svg>