<svg xmlns="http://www.w3.org/2000/svg" viewBox="0 0 64 64" enable-background="new 0 0 64 64"><path fill="#FF8885" d="M32 57.3c-1.1 0-2.2-.4-3.1-1C10.3 43 3.7 35.5 3 26.3V23c.8-10.2 7.6-15.6 13.5-16.2 1-.1 1.8-.1 2.6-.1 6.5 0 9.8 2.8 12.9 6.4 3.2-3.7 6.5-6.4 12.9-6.4.8 0 1.7 0 2.6.1 5.9.6 12.6 6 13.5 16.1v3.3c-.7 9.2-7.3 16.7-25.9 30.1-.9.7-2 1-3.1 1zM19.1 8.7c-.8 0-1.5 0-2.4.1-5.1.6-11 5.3-11.7 14.3v3.1c.7 8.4 7 15.6 25.1 28.5 1.1.8 2.7.8 3.8 0C52 41.7 58.3 34.5 59 26.1V23c-.7-8.9-6.6-13.6-11.7-14.2-.8-.1-1.6-.1-2.4-.1-6.1 0-8.9 2.7-12.1 6.5l-.8 1-.8-.9c-3.6-4.4-6.5-6.6-12.1-6.6z"/></svg>