<svg xmlns="http://www.w3.org/2000/svg" viewBox="0 0 64 64" enable-background="new 0 0 64 64"><path fill="#ccc" d="M31.8 4C19.1 4 9 14.1 9 26.4c0 5.6 5.6 13.7 9.2 17.7l.2.6h-.2c3.5 4 10.1 13.4 10.2 13.6.9 1.1 2.1 1.7 3.4 1.7 1.3 0 2.5-.6 3.4-1.7 5.3-6.7 6.6-8.6 7.4-9.9.6-1 .9-1.4 2.8-3.6 1-1.1 9.5-11.1 9.5-18.3C55 14.1 44.6 4 31.8 4zm10.9 38.5c-2.1 2.4-2.5 3-3.2 4-.8 1.2-2 3.1-7.2 9.6-.2.2-.4.3-.6.3-.2 0-.4-.1-.5-.3-.3-.4-6.9-9.6-10.5-13.7-3.3-3.8-8.5-11.5-8.5-16.1 0-10.4 8.8-19 19.5-19 10.8 0 19.5 8.5 19.5 19 .2 4.4-4.3 11.4-8.5 16.2zM31.8 14.3C25.9 14.3 21 19 21 24.7s4.8 10.4 10.8 10.4c5.9 0 10.7-4.7 10.7-10.4.1-5.7-4.7-10.4-10.7-10.4zm0 17.4c-3.9 0-7.2-3.1-7.2-6.9 0-3.8 3.2-6.9 7.2-6.9 3.9 0 7.1 3.1 7.1 6.9.1 3.8-3.1 6.9-7.1 6.9z"/></svg>