<svg xmlns="http://www.w3.org/2000/svg" viewBox="0 0 64 64" enable-background="new 0 0 64 64"><path fill-rule="evenodd" clip-rule="evenodd" d="M32.1 7.1c7.4 0 13.4 5.9 13.8 13.3h3C48.6 11.3 41.2 4 32.1 4s-16.5 7.3-16.8 16.4h3c.3-7.4 6.4-13.3 13.8-13.3zm20.7 14.7H11.2c-3.1 0-5.6 2.4-5.6 5.5l5.6 27.3c0 3 2.5 5.5 5.6 5.5h30.6c3.1 0 5.6-2.4 5.6-5.5l5.6-27.3c-.2-3.1-2.7-5.5-5.8-5.5zM19.5 35.4c-1.5 0-2.8-1.2-2.8-2.7 0-1.5 1.2-2.7 2.8-2.7 1.5 0 2.8 1.2 2.8 2.7 0 1.5-1.3 2.7-2.8 2.7zm25 0c-1.5 0-2.8-1.2-2.8-2.7 0-1.5 1.2-2.7 2.8-2.7 1.5 0 2.8 1.2 2.8 2.7 0 1.5-1.3 2.7-2.8 2.7z"/></svg>