<svg xmlns="http://www.w3.org/2000/svg" viewBox="0 0 64 64" enable-background="new 0 0 64 64"><path fill-rule="evenodd" clip-rule="evenodd" fill="#FFA09D" d="M58.8 16.3c-.8 1.6-2.6 3-4.9 4.2v-2.7c1.4-.8 2.5-1.7 2.9-2.6 1.1-2.3 1.1-4.6 0-6.3-1-1.6-2.9-2.5-5.1-2.5-4.2 0-7.5 8.8-9.1 15.3l-.9.7-1.4-2.2C41.8 14.1 45.3 4 51.4 4c6.6 0 10.3 5.9 7.4 12.3zm-18.4 9.8c1.1 0 2-.7 2.3-1.7.7-.6 1.5-1.3 2.4-1.9.1.4.2.8.2 1.2 0 2.7-2.2 4.9-4.9 4.9s-4.9-2.2-4.9-4.9c0-2 1.2-3.8 3-4.5-.4 2-.6 3.3-.6 3.3s-.7-.3 0 1.2c.1 1.3 1.2 2.4 2.5 2.4zm-7.3-11c-.7 0-1.9.5-2.4 1l-24 24.1L24 57.6l24-24.1c.5-.5 1-1.8 1-2.5V15.1h-2.1c.4-.9.8-1.8 1.2-2.5h.9c1.3 0 2.4 1.1 2.4 2.5V31c0 1.4-.8 3.2-1.7 4.2l-24 24.1c-1 1-2.5 1-3.5 0L4.9 41.9c-1-1-1-2.5 0-3.5l24-24.1c1-1 2.8-1.7 4.2-1.7h7.2c-.3.8-.6 1.7-.8 2.5h-6.4zm.6 42.4l19.1-19.2c.5-.5 1-1.8 1-2.5V23.9c.9-.5 1.7-1 2.4-1.6v13.5c0 1.4-.8 3.2-1.7 4.2l-19 19.3c-1 1-2.5 1-3.5 0l-1.5-1.5 1.7-1.7 1.5 1.4z"/></svg>