<svg xmlns="http://www.w3.org/2000/svg" viewBox="0 0 64 64" enable-background="new 0 0 64 64"><path fill="#FF8885" d="M46.6 59.9c-.8 0-1.7-.2-2.4-.6l-10.6-5.7c-.9-.5-2.1-.5-3.1 0l-10.7 5.6c-2.2 1.1-5 .5-6.5-1.3-1-1.2-1.4-2.7-1.1-4.2l2-11.9c.2-1.1-.2-2.2-.9-2.9l-8.7-8.5C3.2 29 2.7 27 3.3 25.1c.6-1.9 2.2-3.3 4.2-3.7l12-1.7c1-.1 2-.8 2.4-1.8L27.3 7c.9-1.8 2.7-2.8 4.7-2.8 2.1 0 3.9 1.1 4.7 2.9L42.1 18c.4 1 1.3 1.6 2.4 1.8l12 1.7c2 .3 3.6 1.6 4.3 3.6.6 1.9.1 4-1.3 5.4L50.7 39c-.8.8-1.1 1.9-.9 2.9l2 11.9c.3 1.5-.1 3.1-1.1 4.2-1.1 1.2-2.6 1.9-4.1 1.9zM32 51.2c.9 0 1.7.2 2.5.7l10.6 5.7c1.3.7 3.1.3 4-.8.6-.7.9-1.7.7-2.6l-2-11.9c-.3-1.6.2-3.4 1.5-4.7l8.8-8.5c.9-.9 1.2-2.2.8-3.4-.4-1.2-1.4-2-2.6-2.2l-12-1.7c-1.8-.3-3.2-1.3-4-2.9l-5.4-11c-.5-1.1-1.6-1.8-2.9-1.8-1.2 0-2.3.6-2.9 1.7l-5.4 10.9c-.8 1.5-2.3 2.6-4 2.8l-12 1.7c-1.3.2-2.3 1.1-2.7 2.3-.3 1.3 0 2.5.9 3.4l8.7 8.5c1.2 1.2 1.7 2.9 1.5 4.7l-2 11.9c-.2 1 .1 1.9.7 2.6 1 1.2 2.7 1.5 4.1.8l10.7-5.6c.7-.4 1.6-.6 2.4-.6z"/></svg>