<svg xmlns="http://www.w3.org/2000/svg" viewBox="0 0 64 64" enable-background="new 0 0 64 64"><path fill-rule="evenodd" clip-rule="evenodd" d="M54.5 18.6c0-3-2.4-5.5-5.5-5.5H23.8c-.6 0-1.1.5-1.1 1.1s.5 1.1 1.1 1.1h25.8c1.5 0 2.7 1.2 2.7 2.7v23.4c0 .2 0 .3-.1.5h.1c0 .6.5 1.1 1.1 1.1s1.1-.5 1.1-1.1c0-.1 0-.2-.1-.3 0-.2.1-.5.1-.7V18.6zm-9.8-1H17.1c-3 0-5.5 2.4-5.5 5.5v22.4c0 3 2.4 5.5 5.5 5.5h8.4l3.8 3.8c.9.9 2.2.9 3.1 0l3.8-3.8h8.4c3 0 5.5-2.4 5.5-5.5V23c0-3-2.4-5.4-5.4-5.4zM22.1 35.3c-.9 0-1.6-.7-1.6-1.7s.7-1.7 1.6-1.7c.9 0 1.6.7 1.6 1.7s-.7 1.7-1.6 1.7zm8.8 0c-.9 0-1.6-.7-1.6-1.7S30 32 30.9 32c.9 0 1.6.7 1.6 1.7s-.7 1.6-1.6 1.6zm8.8 0c-.9 0-1.6-.7-1.6-1.7s.7-1.7 1.6-1.7 1.6.7 1.6 1.7-.7 1.7-1.6 1.7z"/></svg>