<svg xmlns="http://www.w3.org/2000/svg" viewBox="0 0 64 64" enable-background="new 0 0 64 64"><path d="M50.1 44.3H16c-.6 0-1-.4-1-1s.4-1 1-1h34.1c1.5 0 2.6-.8 2.9-2.1l5.9-21.8c.2-.8.1-1.6-.4-2.3C58 15.4 57 15 56 15H12c-.6 0-1-.4-1-1s.4-1 1-1h44c1.6 0 3.2.7 4.1 2 .9 1.1 1.1 2.6.7 4L55 40.8c-.6 2.1-2.5 3.5-4.9 3.5zM53.3 52.3H19.5c-2.6 0-4.6-1.7-5-4.2l-5-38.8C9.3 7.9 8.1 7 6.5 7H4c-.6 0-1-.4-1-1s.4-1 1-1h2.5c2.6 0 4.6 1.7 5 4.1l5 38.8c.2 1.4 1.5 2.4 3 2.4h33.8c.6 0 1 .4 1 1s-.4 1-1 1zM25.3 59H20c-.6 0-1-.4-1-1s.4-1 1-1h5.3c.6 0 1 .4 1 1s-.4 1-1 1zM49.3 59H44c-.6 0-1-.4-1-1s.4-1 1-1h5.3c.6 0 1 .4 1 1s-.4 1-1 1z"/></svg>