<svg xmlns="http://www.w3.org/2000/svg" viewBox="0 0 64 64" enable-background="new 0 0 64 64"><path d="M54.1 48.2v-.3c0-4.3-5.8-9.2-14.5-11.1 1.8-2.1 3.1-4.8 3.1-8v-8.4C42.7 13.9 38.1 9 32 9s-10.7 4.9-10.7 11.5v8.4c0 3.3.8 6.2 2.8 8.3-7.4 1.9-14 6.1-14 10.8 0 .1-.1.2-.1.3-.1.7-.2 2.4 1.6 3.4 4 2.1 11.6 3.3 20.4 3.3s16.4-1.2 20.4-3.4c1.9-1 1.8-2.7 1.7-3.4zm-30-19.4v-8.4c0-4.9 3.4-8.6 7.9-8.6s7.9 3.7 7.9 8.6v8.4c0 4.9-3.4 8.6-7.9 8.6s-7.9-3.6-7.9-8.6zm27 20.2c-3.6 1.8-10.9 3-19.1 3s-15.6-1.1-19.1-3c-.1 0-.1-.1-.2-.1v-1c0-2.5 5.7-7.1 14.1-8.5 1.4.7 2.9 1 4.5 1 1.7 0 3.4-.4 4.8-1.1 8.9 1.2 15 6 15 8.7v.6s0 .4.1.4c.1-.1 0-.1-.1 0z"/></svg>