<svg xmlns="http://www.w3.org/2000/svg" viewBox="0 0 64 64" enable-background="new 0 0 64 64"><path d="M53 39c3.9 0 7-3.1 7-7s-3.1-7-7-7h-1.2c-.2-.7-.5-1.4-.8-2l.9-.9c1.3-1.3 2-3.1 2-4.9 0-1.9-.7-3.6-2-4.9-1.3-1.3-3.1-2-4.9-2-1.9 0-3.6.7-4.9 2l-1.1.8c-.7-.3-1.3-.6-2-.8V11c0-3.9-3.1-7-7-7s-7 3.1-7 7v1.2c-.7.2-1.4.5-2 .8l-.9-.9c-1.3-1.3-3.1-2-4.9-2-1.9 0-3.6.7-4.9 2-1.3 1.3-2 3.1-2 4.9 0 1.9.7 3.6 2 4.9l.9.9c-.3.7-.6 1.3-.8 2H11c-3.9 0-7 3.1-7 7s3.1 7 7 7h1.2c.2.7.5 1.4.8 2l-.9.9c-1.3 1.3-2 3.1-2 4.9 0 1.9.7 3.6 2 4.9 1.3 1.3 3.1 2 4.9 2 1.9 0 3.6-.7 4.9-2l.9-.9c.7.3 1.3.6 2 .8V53c0 3.9 3.1 7 7 7s7-3.1 7-7v-1.2c.7-.2 1.4-.5 2-.8l.9.9c1.3 1.3 3.1 2 4.9 2 1.9 0 3.6-.7 4.9-2 1.3-1.3 2-3.1 2-4.9 0-1.9-.7-3.6-2-4.9l-.6-1.1c.3-.7.6-1.3.8-2H53zm-3.7 5.4c.7.7 1 1.5 1 2.5 0 .9-.4 1.8-1 2.5-1.3 1.3-3.6 1.3-4.9 0l-2.7-2.7-1.2.6c-1.2.7-2.4 1.2-3.8 1.5l-1.3.4V53c0 1.9-1.6 3.5-3.5 3.5s-3.5-1.6-3.5-3.5v-3.8l-1.3-.4c-1.3-.4-2.6-.9-3.8-1.5l-1.2-.6-2.7 2.7c-1.3 1.3-3.6 1.3-4.9 0-.7-.7-1-1.5-1-2.5 0-.9.4-1.8 1-2.5l2.7-2.7-.6-1.2c-.6-1.2-1.2-2.4-1.5-3.8l-.4-1.3H11c-1.9 0-3.5-1.6-3.5-3.5s1.6-3.5 3.5-3.5h3.8l.4-1.3c.4-1.3.9-2.6 1.5-3.8l.6-1.2-2.7-2.7c-.7-.7-1-1.5-1-2.5s.4-1.8 1-2.5c1.3-1.3 3.6-1.3 4.9 0l2.7 2.7 1.2-.6c1.2-.7 2.4-1.2 3.8-1.5l1.3-.4V11c0-1.9 1.6-3.5 3.5-3.5s3.5 1.6 3.5 3.5v3.8l1.3.4c1.3.4 2.6.9 3.8 1.5l1.2.6 2.7-2.7c1.3-1.3 3.6-1.3 4.9 0 .7.7 1 1.5 1 2.5s-.4 1.8-1 2.5l-2.7 2.7.6 1.2c.7 1.2 1.2 2.4 1.5 3.8l.4 1.3H53c1.9 0 3.5 1.6 3.5 3.5s-1.6 3.5-3.5 3.5h-3.8l-.4 1.3c-.4 1.3-.9 2.6-1.5 3.8l-.6 1.2 2.6 2.5zM32 21.5c-5.8 0-10.5 4.7-10.5 10.5S26.2 42.5 32 42.5 42.5 37.8 42.5 32 37.8 21.5 32 21.5zM32 39c-3.9 0-7-3.1-7-7s3.1-7 7-7 7 3.1 7 7-3.1 7-7 7z"/></svg>