<?xml version="1.0" standalone="no"?>
<!DOCTYPE svg PUBLIC "-//W3C//DTD SVG 1.1//EN" "http://www.w3.org/Graphics/SVG/1.1/DTD/svg11.dtd" >
<svg xmlns="http://www.w3.org/2000/svg">
<metadata>Generated by IcoMoon</metadata>
<defs>
<font id="icomoon" horiz-adv-x="1024">
<font-face units-per-em="1024" ascent="960" descent="-64" />
<missing-glyph horiz-adv-x="1024" />
<glyph unicode="&#x20;" horiz-adv-x="512" d="" />
<glyph unicode="&#xe600;" glyph-name="icon-fj" d="M502.4 126.4c-8 0-16 3.2-20.8 9.6-8 9.6-11.2 25.6-8 51.2 6.4 51.2 9.6 148.8 11.2 198.4-28.8-16-76.8-41.6-124.8-59.2-48-19.2-99.2-9.6-128 22.4-68.8 76.8-152 172.8-153.6 174.4-3.2 3.2-16 22.4-14.4 41.6 1.6 11.2 8 19.2 17.6 25.6 6.4 4.8 12.8 8 14.4 9.6 3.2 1.6 11.2 6.4 25.6 6.4 9.6 0 20.8-3.2 30.4-8 22.4-11.2 116.8-64 144-81.6l502.4 238.4c3.2 1.6 41.6 14.4 78.4 14.4 28.8 0 51.2-8 65.6-24 14.4-14.4 19.2-35.2 17.6-62.4-8-99.2-188.8-169.6-233.6-184l-128-307.2c-1.6-3.2-9.6-20.8-43.2-38.4-3.2-1.6-8-4.8-11.2-8-14.4-9.6-27.2-19.2-41.6-19.2zM520 446.4l-1.6-32c0-6.4-4.8-160-12.8-232-1.6-9.6-1.6-16 0-19.2 4.8 3.2 12.8 8 16 11.2 4.8 3.2 9.6 6.4 14.4 9.6 22.4 12.8 28.8 22.4 28.8 22.4l136 321.6 8 3.2c57.6 19.2 211.2 86.4 217.6 156.8 1.6 16-1.6 27.2-8 35.2-9.6 9.6-27.2 12.8-40 12.8-32 0-64-11.2-65.6-11.2l-518.4-248-8 4.8c-1.6 0-124.8 72-150.4 84.8-4.8 3.2-11.2 4.8-14.4 4.8s-6.4-1.6-6.4-1.6c-1.6 0-6.4-3.2-12.8-8-1.6-1.6-1.6-1.6-1.6-1.6 0-3.2 3.2-11.2 6.4-14.4 0 0 83.2-96 152-172.8 16-17.6 35.2-20.8 49.6-20.8 12.8 0 25.6 3.2 38.4 8 72 28.8 145.6 72 147.2 72l25.6 14.4zM416 451.2c1.6-4.8 0-9.6-3.2-11.2l-19.2-8c-3.2-1.6-8 0-9.6 4.8v0c-1.6 4.8 0 9.6 3.2 11.2l17.6 8c4.8 1.6 9.6-1.6 11.2-4.8v0zM489.6 484.8c1.6-4.8 0-9.6-3.2-11.2l-17.6-8c-3.2-1.6-8 0-9.6 4.8v0c-1.6 4.8 0 9.6 3.2 11.2l17.6 8c3.2 1.6 8 0 9.6-4.8v0zM563.2 520c1.6-4.8 0-9.6-3.2-11.2l-17.6-8c-3.2-1.6-8 0-9.6 4.8v0c-1.6 4.8 0 9.6 3.2 11.2l17.6 8c3.2 1.6 8-1.6 9.6-4.8v0zM636.8 553.6c1.6-4.8 0-9.6-3.2-11.2l-17.6-8c-3.2-1.6-8 0-9.6 4.8v0c-1.6 4.8 0 9.6 3.2 11.2l17.6 8c3.2 1.6 8 0 9.6-4.8v0zM710.4 588.8c1.6-4.8 0-9.6-3.2-11.2l-19.2-8c-3.2-1.6-8 0-9.6 4.8v0c-1.6 4.8 0 9.6 3.2 11.2l17.6 8c4.8 1.6 9.6-1.6 11.2-4.8v0zM784 622.4c1.6-4.8 0-9.6-3.2-11.2l-17.6-8c-3.2-1.6-8 0-9.6 4.8v0c-1.6 4.8 0 9.6 3.2 11.2l17.6 8c3.2 1.6 8 0 9.6-4.8v0zM857.6 657.6c1.6-4.8 0-9.6-3.2-11.2l-17.6-8c-3.2-1.6-8 0-9.6 4.8v0c-1.6 4.8 0 9.6 3.2 11.2l17.6 8c3.2 1.6 8-1.6 9.6-4.8v0zM457.6 566.4l-217.6 89.6 129.6 51.2 268.8-41.6-1.6-17.6-265.6 40-84.8-32 177.6-72z" />
<glyph unicode="&#xe601;" glyph-name="icon-game" d="M350.4 364.8h-48v48c0 4.8-4.8 9.6-9.6 9.6h-19.2c-4.8 0-9.6-4.8-9.6-9.6v-48h-48c-4.8 0-9.6-4.8-9.6-9.6v-19.2c0-4.8 4.8-9.6 9.6-9.6h48v-48c0-4.8 4.8-9.6 9.6-9.6h19.2c4.8 0 9.6 4.8 9.6 9.6v48h48c4.8 0 9.6 4.8 9.6 9.6v19.2c0 4.8-4.8 9.6-9.6 9.6zM729.6 384c16 0 28.8 12.8 28.8 28.8s-12.8 28.8-28.8 28.8c-16 0-28.8-12.8-28.8-28.8 1.6-16 14.4-28.8 28.8-28.8zM729.6 326.4c-16 0-28.8-12.8-28.8-28.8s12.8-28.8 28.8-28.8c16 0 28.8 12.8 28.8 28.8s-12.8 28.8-28.8 28.8zM787.2 384c-16 0-28.8-12.8-28.8-28.8s12.8-28.8 28.8-28.8c16 0 28.8 12.8 28.8 28.8s-12.8 28.8-28.8 28.8zM673.6 384c-16 0-28.8-12.8-28.8-28.8s12.8-28.8 28.8-28.8c16 0 28.8 12.8 28.8 28.8s-12.8 28.8-28.8 28.8zM913.6 403.2c-73.6 147.2-204.8 224-296 179.2-12.8-6.4-24-11.2-40-20.8l-16-11.2c-9.6-6.4-19.2-11.2-30.4-12.8 4.8 35.2 32 104 171.2 148.8 192 64 152 171.2 152 171.2h-38.4c0 0 36.8-91.2-152-152-131.2-41.6-161.6-136-168-172.8-4.8 0-14.4 4.8-36.8 16l-14.4 8c-11.2 8-25.6 17.6-38.4 24-92.8 44.8-222.4-30.4-294.4-177.6-73.6-147.2-59.2-304 32-352 78.4-41.6 187.2 12.8 262.4 123.2l6.4 8c20.8 30.4 59.2 48 100.8 48s75.2-16 97.6-48l4.8-4.8c80-107.2 190.4-168 267.2-126.4 89.6 48 102.4 204.8 30.4 352zM864 86.4c-64-33.6-155.2 19.2-217.6 116.8-35.2 59.2-86.4 65.6-134.4 65.6s-83.2 0-118.4-44.8l-9.6-11.2c-62.4-97.6-160-160-224-126.4-72 36.8-73.6 180.8-14.4 297.6s176 203.2 244.8 161.6l60.8-30.4c24-9.6 38.4-19.2 62.4-19.2 22.4 0 44.8 6.4 62.4 19.2l17.6 9.6c12.8 8 28.8 14.4 41.6 22.4 72 36.8 185.6-44.8 244.8-161.6 57.6-118.4 56-260.8-16-299.2z" />
<glyph unicode="&#xe602;" glyph-name="icon-sh" d="M256 555.2c83.2 0 148.8 67.2 148.8 148.8s-65.6 148.8-148.8 148.8-148.8-65.6-148.8-148.8 65.6-148.8 148.8-148.8zM256 811.2c59.2 0 107.2-48 107.2-107.2s-48-107.2-107.2-107.2c-59.2 0-107.2 48-107.2 107.2s48 107.2 107.2 107.2zM948.8 491.2h-11.2c0 86.4-65.6 158.4-148.8 169.6v33.6c0 6.4-4.8 11.2-11.2 11.2h-20.8c-6.4 0-11.2-4.8-11.2-11.2v-33.6c-84.8-11.2-148.8-81.6-148.8-169.6h-11.2c-6.4 0-11.2-4.8-11.2-11.2v-20.8c0-6.4 4.8-11.2 11.2-11.2h76.8c-14.4-14.4-30.4-28.8-44.8-43.2-40-35.2-64 0-64 0l-84.8 107.2-4.8-3.2c-16 14.4-35.2 24-59.2 24h-70.4l-78.4-297.6-78.4 299.2h-92.8c-8 0-14.4-1.6-20.8-3.2v-44.8c6.4 3.2 12.8 6.4 20.8 6.4h56l115.2-364.8 115.2 363.2h35.2c16 0 28.8-8 36.8-20.8h1.6l89.6-107.2c0 0 35.2-36.8 84.8 0 25.6 19.2 68.8 56 100.8 84.8h70.4c-41.6-44.8-136-148.8-172.8-192-56-67.2-84.8-20.8-84.8-20.8l-64 64-20.8-22.4c0 0 0-8 6.4-20.8h-6.4v-128c0-24-19.2-43.2-43.2-43.2h-320c-8 0-14.4 1.6-20.8 6.4v-44.8c6.4-1.6 14.4-3.2 20.8-3.2h320c46.4 0 84.8 38.4 84.8 84.8v81.6c6.4-6.4 12.8-11.2 20.8-17.6 67.2-49.6 128 20.8 128 20.8l193.6 235.2h116.8c6.4 0 11.2 4.8 11.2 11.2v20.8c0 6.4-4.8 11.2-11.2 11.2zM750.4 491.2h-110.4c0 70.4 57.6 128 128 128s128-57.6 128-128h-145.6z" />
<glyph unicode="&#xe603;" glyph-name="icon-tea" d="M852.8 387.2c-35.2 0-65.6-19.2-83.2-48 3.2 19.2 4.8 36.8 4.8 57.6 0 36.8-6.4 73.6-19.2 107.2v0 8c0 4.8-4.8 9.6-9.6 9.6h-579.2c-4.8 0-9.6-4.8-9.6-9.6v-9.6c-11.2-33.6-19.2-68.8-19.2-107.2 0-176 142.4-320 320-320 137.6 0 256 88 300.8 211.2 1.6-52.8 43.2-94.4 96-94.4s96 43.2 96 96c0 56-43.2 99.2-97.6 99.2zM457.6 115.2c-155.2 0-280 126.4-280 280 0 30.4 4.8 59.2 14.4 86.4h532.8c9.6-27.2 14.4-56 14.4-86.4-1.6-153.6-128-280-281.6-280zM852.8 232c-32 0-57.6 25.6-57.6 57.6s25.6 57.6 57.6 57.6c32 0 57.6-25.6 57.6-57.6 1.6-32-24-57.6-57.6-57.6zM137.6 67.2v-19.2c0-4.8 4.8-9.6 9.6-9.6h619.2c4.8 0 9.6 4.8 9.6 9.6v19.2c0 4.8-4.8 9.6-9.6 9.6h-619.2c-4.8 0-9.6-4.8-9.6-9.6zM422.4 593.6c-12.8 49.6 16 86.4 16 86.4 86.4 67.2 76.8 104 76.8 104-14.4 124.8-46.4 51.2-46.4 51.2 30.4-60.8-16-86.4-16-86.4-83.2-64-62.4-155.2-62.4-155.2 16-32 32 0 32 0zM468.8 552c16-30.4 30.4 0 30.4 0-12.8 44.8 16 76.8 16 76.8 86.4 59.2 76.8 92.8 76.8 92.8-12.8 110.4-46.4 46.4-46.4 46.4 30.4-54.4-16-76.8-16-76.8-81.6-57.6-60.8-139.2-60.8-139.2z" />
<glyph unicode="&#xe604;" glyph-name="icon-tv" d="M926.4 52.8c0-11.2-8-19.2-19.2-19.2h-790.4c-11.2 0-19.2 8-19.2 19.2v603.2c0 11.2 8 19.2 19.2 19.2h790.4c11.2 0 19.2-8 19.2-19.2v-603.2zM136 72h753.6v564.8h-753.6v-564.8zM512 240c-81.6 0-164.8 8-286.4 27.2-9.6 1.6-16 9.6-16 19.2v270.4c0 9.6 6.4 17.6 16 19.2 121.6 19.2 204.8 27.2 284.8 27.2 81.6 0 163.2-8 284.8-27.2 9.6-1.6 16-9.6 16-19.2v-270.4c0-9.6-6.4-17.6-16-19.2-118.4-19.2-201.6-27.2-283.2-27.2zM248 302.4c113.6-17.6 187.2-24 264-24 75.2 0 150.4 6.4 264 24v236.8c-113.6 17.6-187.2 24-264 24-75.2 0-150.4-6.4-264-24v-236.8zM788.8 105.6c-30.4 0-56 25.6-56 56s25.6 56 56 56 56-25.6 56-56c1.6-30.4-24-56-56-56zM788.8 180.8c-9.6 0-19.2-8-19.2-19.2 0-9.6 8-19.2 19.2-19.2 9.6 0 19.2 8 19.2 19.2s-8 19.2-19.2 19.2zM262.4 105.6c-30.4 0-56 25.6-56 56s25.6 56 56 56 56-25.6 56-56-25.6-56-56-56zM262.4 180.8c-9.6 0-19.2-8-19.2-19.2 0-9.6 8-19.2 19.2-19.2 9.6 0 19.2 8 19.2 19.2s-9.6 19.2-19.2 19.2zM606.4 110.4h-150.4c-11.2 0-19.2 8-19.2 19.2s8 19.2 19.2 19.2h150.4c11.2 0 19.2-8 19.2-19.2s-8-19.2-19.2-19.2zM230.4-3.2h-38.4c-11.2 0-19.2 8-19.2 19.2s8 19.2 19.2 19.2h38.4c11.2 0 19.2-8 19.2-19.2s-9.6-19.2-19.2-19.2zM870.4-3.2h-38.4c-11.2 0-19.2 8-19.2 19.2s8 19.2 19.2 19.2h38.4c11.2 0 19.2-8 19.2-19.2s-9.6-19.2-19.2-19.2zM619.2 667.2c-9.6 0-19.2 8-19.2 19.2 0 41.6-33.6 76.8-76.8 76.8-41.6 0-76.8-33.6-76.8-76.8 0-11.2-8-19.2-19.2-19.2s-19.2 8-19.2 19.2c0 62.4 51.2 113.6 113.6 113.6s113.6-51.2 113.6-113.6c3.2-11.2-4.8-19.2-16-19.2zM486.4 753.6c-4.8 0-9.6 1.6-12.8 4.8l-110.4 100.8c-8 6.4-8 19.2-1.6 27.2s19.2 8 27.2 1.6l110.4-100.8c8-6.4 8-19.2 1.6-27.2-4.8-3.2-9.6-6.4-14.4-6.4zM600 753.6c-4.8 0-9.6 1.6-14.4 6.4-6.4 8-6.4 19.2 1.6 27.2l110.4 100.8c8 6.4 19.2 6.4 27.2-1.6 6.4-8 6.4-19.2-1.6-27.2l-110.4-100.8c-3.2-3.2-8-4.8-12.8-4.8z" />
<glyph unicode="&#xe605;" glyph-name="icon-wz" d="M937.6 494.4c0 96-52.8 180.8-131.2 225.6 0 0-1.6 1.6-1.6 1.6-1.6 1.6-4.8 1.6-6.4 3.2-1.6 0-3.2 1.6-3.2 1.6-28.8 14.4-59.2 24-89.6 27.2-46.4 70.4-126.4 113.6-211.2 113.6-115.2 0-212.8-75.2-244.8-184-3.2-1.6-6.4-1.6-9.6-3.2-1.6 0-3.2-1.6-6.4-1.6-43.2-17.6-78.4-46.4-104-83.2 0 0 0 0 0 0-3.2-4.8-6.4-9.6-9.6-16 0 0 0-1.6-1.6-1.6-3.2-4.8-4.8-9.6-8-16 0-1.6-1.6-1.6-1.6-3.2-1.6-4.8-4.8-9.6-6.4-16 0 0 0-1.6 0-1.6s0 0 0 0c-8-24-14.4-51.2-14.4-78.4 0-83.2 44.8-156.8 112-196.8-1.6-4.8-3.2-11.2-1.6-16l57.6-204.8c3.2-9.6 12.8-17.6 22.4-17.6h457.6c11.2 0 19.2 6.4 22.4 17.6l57.6 206.4c1.6 6.4 0 14.4-3.2 20.8 73.6 44.8 124.8 128 124.8 222.4zM694.4 233.6l-32-156.8h-43.2l19.2 156.8h56zM595.2 76.8h-43.2l6.4 156.8h56l-19.2-156.8zM528 76.8h-43.2l-6.4 156.8h56l-6.4-156.8zM454.4 233.6l6.4-156.8h-43.2l-19.2 156.8h56zM374.4 233.6l19.2-156.8h-43.2l-32 156.8h56zM251.2 233.6h43.2l32-156.8h-30.4l-44.8 156.8zM716.8 76.8h-30.4l32 156.8h43.2l-44.8-156.8zM676.8 281.6h-360c-100.8 0-182.4 81.6-182.4 182.4 0 30.4 8 59.2 20.8 84.8 1.6 1.6 1.6 3.2 3.2 4.8 3.2 6.4 8 12.8 12.8 19.2 1.6 1.6 3.2 3.2 4.8 4.8 4.8 6.4 9.6 11.2 16 16 1.6 1.6 3.2 3.2 6.4 4.8 6.4 4.8 11.2 9.6 17.6 14.4 1.6 1.6 3.2 3.2 6.4 3.2 6.4 4.8 14.4 8 22.4 11.2 1.6 0 3.2 1.6 4.8 1.6 8 3.2 17.6 6.4 27.2 9.6 22.4 4.8 46.4 6.4 70.4 3.2 12.8-1.6 25.6 6.4 27.2 20.8 1.6 12.8-6.4 25.6-20.8 27.2-16 1.6-32 3.2-48 1.6 32 75.2 105.6 126.4 190.4 126.4 59.2 0 113.6-25.6 152-67.2-12.8-1.6-25.6-3.2-36.8-8-67.2-19.2-121.6-62.4-156.8-123.2-6.4-11.2-1.6-25.6 9.6-32 3.2-1.6 8-3.2 11.2-3.2 8 0 16 4.8 20.8 12.8 27.2 49.6 73.6 84.8 128 100.8 22.4 6.4 44.8 8 67.2 8 0 0 1.6 0 1.6 0 112-6.4 201.6-99.2 201.6-211.2-4.8-116.8-99.2-212.8-217.6-212.8z" />
<glyph unicode="&#xe606;" d="M153.6 896h716.8c49.6 0 89.6-40 89.6-89.6v-716.8c0-49.6-40-89.6-89.6-89.6h-716.8c-49.6 0-89.6 40-89.6 89.6v716.8c0 49.6 40 89.6 89.6 89.6z" />
<glyph unicode="&#xe607;" d="M707.2 673.6h-214.4c-56 0-100.8-44.8-100.8-100.8v-1.6l-118.4-72c-59.2-28.8-68.8-59.2-73.6-102.4v-145.6c0-32 27.2-57.6 59.2-57.6h30.4c6.4-41.6 43.2-73.6 88-73.6s80 32 88 73.6h91.2c6.4-41.6 43.2-73.6 88-73.6s83.2 33.6 88 76.8c43.2 11.2 75.2 51.2 75.2 97.6v278.4c0 56-44.8 100.8-100.8 100.8zM304 368c-16 0-30.4 12.8-30.4 28.8h104c8 0 14.4 6.4 14.4 14.4v102.4c16 0 30.4-12.8 30.4-28.8v-88c0-16-12.8-28.8-30.4-28.8h-88zM379.2 145.6c-28.8 0-54.4 19.2-60.8 46.4h120c-6.4-25.6-30.4-46.4-59.2-46.4zM644.8 145.6c-28.8 0-54.4 19.2-60.8 46.4h120c-4.8-25.6-28.8-46.4-59.2-46.4z" />
<glyph unicode="&#xe608;" d="M153.6 896h716.8c49.6 0 89.6-40 89.6-89.6v-716.8c0-49.6-40-89.6-89.6-89.6h-716.8c-49.6 0-89.6 40-89.6 89.6v716.8c0 49.6 40 89.6 89.6 89.6z" />
<glyph unicode="&#xe609;" d="M316.8 697.6l-48-48c-25.6-27.2-14.4-57.6 0-96 0 0 65.6-112 150.4-198.4 89.6-91.2 195.2-150.4 195.2-150.4 35.2-17.6 68.8-27.2 96 0l48 48c12.8 12.8 16 36.8 0 48l-96 72c-16 11.2-35.2 12.8-48 0l-28.8-28.8c-33.6 25.6-70.4 54.4-102.4 88-28.8 28.8-56 60.8-76.8 91.2l28.8 28.8c12.8 12.8 11.2 32 0 48l-72 96c-11.2 14.4-32 14.4-46.4 1.6z" />
<glyph unicode="&#xe60a;" d="M153.6 896h716.8c49.6 0 89.6-40 89.6-89.6v-716.8c0-49.6-40-89.6-89.6-89.6h-716.8c-49.6 0-89.6 40-89.6 89.6v716.8c0 49.6 40 89.6 89.6 89.6z" />
<glyph unicode="&#xe60b;" d="M808 195.2h-592c-22.4 0-40 17.6-40 38.4v427.2c0 20.8 17.6 38.4 40 38.4h590.4c22.4 0 40-17.6 40-38.4v-427.2c1.6-20.8-16-38.4-38.4-38.4zM260.8 328c0-3.2 3.2-6.4 6.4-6.4h121.6c3.2 0 6.4 3.2 6.4 6.4v19.2c0 3.2-3.2 6.4-6.4 6.4h-121.6c-3.2 0-6.4-3.2-6.4-6.4v-19.2zM764.8 568c0 3.2-3.2 6.4-6.4 6.4h-492.8c-3.2 0-6.4-3.2-6.4-6.4v-19.2c0-3.2 3.2-6.4 6.4-6.4h491.2c3.2 0 6.4 3.2 6.4 6.4v19.2z" />
<glyph unicode="&#xe60c;" d="M153.6 896h716.8c49.6 0 89.6-40 89.6-89.6v-716.8c0-49.6-40-89.6-89.6-89.6h-716.8c-49.6 0-89.6 40-89.6 89.6v716.8c0 49.6 40 89.6 89.6 89.6z" />
<glyph unicode="&#xe60d;" d="M512 184l-100.8 171.2s-110.4-43.2-148.8-68.8c-38.4-25.6-54.4-104-54.4-104h609.6s-11.2 73.6-56 104c-38.4 25.6-148.8 68.8-148.8 68.8l-100.8-171.2zM512 321.6l-33.6-33.6 17.6-33.6-51.2-68.8h136l-52.8 67.2 17.6 33.6-33.6 35.2zM515.2 712c148.8 0 148.8-113.6 148.8-177.6s-59.2-184-148.8-184c-89.6 0-148.8 120-148.8 184s0 177.6 148.8 177.6z" />
<glyph unicode="&#xe60e;" glyph-name="icon-about" d="M512 896c-246.4 0-448-201.6-448-448s201.6-448 448-448 448 201.6 448 448-201.6 448-448 448zM512 56c-216 0-392 176-392 392s176 392 392 392 392-176 392-392-176-392-392-392zM512 560c-16 0-28.8-12.8-28.8-28.8v-336c0-16 12.8-28.8 28.8-28.8s28.8 12.8 28.8 28.8v336c0 16-12.8 28.8-28.8 28.8zM526.4 672h-28.8c-8 0-14.4-6.4-14.4-14.4v-28.8c0-8 6.4-14.4 14.4-14.4h28.8c8 0 14.4 6.4 14.4 14.4v28.8c0 8-6.4 14.4-14.4 14.4z" />
<glyph unicode="&#xe60f;" glyph-name="icon-address" d="M508.8 896c-203.2 0-364.8-161.6-364.8-358.4 0-89.6 89.6-219.2 147.2-283.2l3.2-9.6h-3.2c56-64 161.6-214.4 163.2-217.6 14.4-17.6 33.6-27.2 54.4-27.2s40 9.6 54.4 27.2c84.8 107.2 105.6 137.6 118.4 158.4 9.6 16 14.4 22.4 44.8 57.6 16 17.6 152 177.6 152 292.8 1.6 198.4-164.8 360-369.6 360zM683.2 280c-33.6-38.4-40-48-51.2-64-12.8-19.2-32-49.6-115.2-153.6-3.2-3.2-6.4-4.8-9.6-4.8s-6.4 1.6-8 4.8c-4.8 6.4-110.4 153.6-168 219.2-52.8 60.8-136 184-136 257.6 0 166.4 140.8 304 312 304 172.8 0 312-136 312-304 3.2-70.4-68.8-182.4-136-259.2zM508.8 731.2c-94.4 0-172.8-75.2-172.8-166.4s76.8-166.4 172.8-166.4c94.4 0 171.2 75.2 171.2 166.4 1.6 91.2-75.2 166.4-171.2 166.4zM508.8 452.8c-62.4 0-115.2 49.6-115.2 110.4s51.2 110.4 115.2 110.4c62.4 0 113.6-49.6 113.6-110.4 1.6-60.8-49.6-110.4-113.6-110.4z" />
<glyph unicode="&#xe610;" glyph-name="icon-all-dingdan" d="M848 896h-672c-62.4 0-112-49.6-112-112v-672c0-62.4 49.6-112 112-112h672c62.4 0 112 49.6 112 112v672c0 62.4-49.6 112-112 112zM904 112c0-30.4-25.6-56-56-56h-672c-30.4 0-56 25.6-56 56v672c0 30.4 25.6 56 56 56h672c30.4 0 56-25.6 56-56v-672zM792 699.2h-476.8c-16 0-27.2-12.8-27.2-27.2 0-16 12.8-28.8 27.2-28.8h476.8c16 0 28.8 12.8 28.8 28.8s-12.8 27.2-28.8 27.2zM792 476.8h-476.8c-16 0-27.2-12.8-27.2-28.8s12.8-28.8 27.2-28.8h476.8c16 0 28.8 12.8 28.8 28.8s-12.8 28.8-28.8 28.8zM792 251.2h-476.8c-16 0-27.2-12.8-27.2-27.2 0-16 12.8-28.8 27.2-28.8h476.8c16 0 28.8 12.8 28.8 28.8s-12.8 27.2-28.8 27.2zM204.8 643.2h56v56h-56v-56zM204.8 419.2h56v56h-56v-56zM204.8 195.2h56v56h-56v-56z" />
<glyph unicode="&#xe611;" glyph-name="icon-arrow-bottom" d="M512 294.4l377.6 377.6h70.4l-448-448-448 448h70.4l377.6-377.6z" />
<glyph unicode="&#xe612;" glyph-name="icon-arrow-left" d="M358.4 448l377.6-377.6v-70.4l-448 448 448 448v-70.4l-377.6-377.6z" />
<glyph unicode="&#xe613;" glyph-name="icon-arrow-right" d="M665.6 448l-377.6 377.6v70.4l448-448-448-448v70.4l377.6 377.6z" />
<glyph unicode="&#xe614;" glyph-name="icon-arrow-top" d="M512 601.6l-377.6-377.6h-70.4l448 448 448-448h-70.4l-377.6 377.6z" />
<glyph unicode="&#xe615;" glyph-name="icon-create" d="M736 468.8h-203.2v203.2c0 6.4-4.8 11.2-11.2 11.2h-20.8c-6.4 0-11.2-4.8-11.2-11.2v-203.2h-201.6c-6.4 0-11.2-4.8-11.2-11.2v-20.8c0-6.4 4.8-11.2 11.2-11.2h203.2v-201.6c0-6.4 4.8-11.2 11.2-11.2h20.8c6.4 0 11.2 4.8 11.2 11.2v203.2h201.6c6.4 0 11.2 4.8 11.2 11.2v20.8c0 4.8-4.8 9.6-11.2 9.6zM512 896c-248 0-448-200-448-448s200-448 448-448 448 200 448 448-200 448-448 448zM512 44.8c-222.4 0-403.2 180.8-403.2 403.2s180.8 403.2 403.2 403.2c222.4 0 403.2-180.8 403.2-403.2s-180.8-403.2-403.2-403.2z" />
<glyph unicode="&#xe616;" glyph-name="icon-edite" d="M769.6-4.8h-561.6c-88 0-160 72-160 160v563.2c0 86.4 70.4 156.8 156.8 156.8h542.4c9.6 0 16-6.4 16-16s-6.4-16-16-16h-542.4c-68.8 0-124.8-56-124.8-124.8v-563.2c0-70.4 57.6-128 128-128h561.6c70.4 0 128 57.6 128 128v422.4c0 9.6 6.4 16 16 16s16-6.4 16-16v-422.4c0-88-72-160-160-160zM417.6 326.4c-4.8 0-8 1.6-11.2 4.8-6.4 6.4-6.4 16 0 22.4l542.4 542.4c6.4 6.4 16 6.4 22.4 0s6.4-16 0-22.4l-542.4-542.4c-3.2-3.2-6.4-4.8-11.2-4.8z" />
<glyph unicode="&#xe617;" glyph-name="icon-error" d="M524.8 681.6h-30.4c-17.6 0-30.4-12.8-30.4-27.2v-272c0-14.4 14.4-27.2 30.4-27.2h30.4c17.6 0 30.4 12.8 30.4 27.2v272c0 14.4-12.8 27.2-30.4 27.2zM524.8 300.8h-30.4c-17.6 0-30.4-12.8-30.4-27.2v-54.4c0-14.4 14.4-27.2 30.4-27.2h30.4c17.6 0 30.4 12.8 30.4 27.2v54.4c0 14.4-12.8 27.2-30.4 27.2zM512 896c-248 0-448-200-448-448s200-448 448-448 448 200 448 448-200 448-448 448zM512 44.8c-222.4 0-403.2 180.8-403.2 403.2s180.8 403.2 403.2 403.2 403.2-180.8 403.2-403.2-180.8-403.2-403.2-403.2z" />
<glyph unicode="&#xe618;" glyph-name="icon-heat" d="M881.6 761.6c-132.8 132.8-264 75.2-369.6-19.2-105.6 94.4-235.2 153.6-369.6 19.2-104-104-105.6-272 0-374.4l368-331.2s0-1.6 371.2 331.2c105.6 102.4 104 270.4 0 374.4zM841.6 432c-198.4-174.4-289.6-268.8-331.2-304-41.6 36.8-134.4 131.2-331.2 307.2-38.4 36.8-59.2 88-59.2 142.4 0 56 22.4 107.2 62.4 147.2 41.6 41.6 81.6 60.8 124.8 60.8 49.6 0 105.6-27.2 168-83.2l36.8-33.6 36.8 33.6c60.8 54.4 118.4 81.6 168 81.6 43.2 0 83.2-19.2 124.8-60.8 40-40 62.4-91.2 62.4-147.2 0-54.4-22.4-105.6-62.4-144z" />
<glyph unicode="&#xe619;" glyph-name="icon-home" d="M851.2 497.6l-275.2 291.2c-16 17.6-40 27.2-64 27.2s-48-9.6-64-27.2l-275.2-291.2c-28.8-30.4-24-56-20.8-67.2 3.2-8 14.4-28.8 46.4-28.8h41.6v-224c0-51.2 35.2-99.2 86.4-99.2h116.8v238.4c0 25.6-3.2 40 22.4 40h92.8c25.6 0 22.4-14.4 22.4-40v-236.8h116.8c51.2 0 86.4 48 86.4 99.2v224h40c32 0 43.2 20.8 46.4 28.8 6.4 9.6 9.6 35.2-19.2 65.6zM824 448h-84.8v-268.8c0-25.6-16-52.8-41.6-52.8h-72v190.4c0 51.2-16 84.8-67.2 84.8h-92.8c-51.2 0-67.2-35.2-67.2-84.8v-190.4h-72c-25.6 0-41.6 27.2-41.6 52.8v268.8h-84.8l-1.6 3.2c1.6 3.2 4.8 9.6 8 14.4l275.2 289.6c8 8 19.2 14.4 30.4 14.4s22.4-4.8 30.4-14.4l275.2-289.6c4.8-4.8 6.4-11.2 8-14.4 0 0 0-3.2-1.6-3.2z" />
<glyph unicode="&#xe61a;" glyph-name="icon-left" d="M363.2 448l385.6 385.6c11.2 11.2 11.2 28.8 0 40l-12.8 12.8c-11.2 11.2-28.8 11.2-40 0l-419.2-417.6c-11.2-11.2-11.2-28.8 0-40l419.2-419.2c11.2-11.2 28.8-11.2 40 0l12.8 12.8c11.2 11.2 11.2 28.8 0 40l-385.6 385.6z" />
<glyph unicode="&#xe61b;" glyph-name="icon-list" d="M320 624h385.6c9.6 0 19.2 8 19.2 19.2 0 9.6-8 17.6-19.2 17.6h-385.6c-9.6 0-19.2-8-19.2-17.6 0-12.8 9.6-19.2 19.2-19.2zM739.2 588.8h-454.4c-27.2 0-52.8-24-52.8-52.8v-315.2c0-27.2 24-52.8 52.8-52.8h454.4c27.2 0 52.8 24 52.8 52.8v313.6c0 30.4-24 54.4-52.8 54.4zM755.2 236.8c0-19.2-16-35.2-35.2-35.2h-419.2c-19.2 0-35.2 16-35.2 35.2v281.6c0 19.2 16 35.2 35.2 35.2h420.8c19.2 0 35.2-16 35.2-35.2l-1.6-281.6zM371.2 692.8h280c9.6 0 19.2 8 19.2 19.2 0 8-8 17.6-19.2 17.6h-280c-9.6 0-19.2-8-19.2-17.6 3.2-11.2 11.2-19.2 19.2-19.2z" />
<glyph unicode="&#xe61c;" glyph-name="icon-money" d="M297.6 790.4c-4.8 3.2-8 8-11.2 14.4-3.2 4.8-4.8 11.2-6.4 17.6s-1.6 12.8 0 17.6c1.6 6.4 4.8 11.2 9.6 16 3.2 6.4 8 8 12.8 8s8-1.6 12.8-4.8c4.8-1.6 11.2-4.8 17.6-8s16-4.8 25.6-4.8c9.6 0 16 3.2 22.4 8l16 16c4.8 6.4 9.6 11.2 16 16 4.8 6.4 12.8 9.6 22.4 9.6s17.6-3.2 22.4-8c4.8-4.8 11.2-11.2 14.4-16 4.8-6.4 9.6-11.2 16-16 6.4-6.4 14.4-8 25.6-8 8 0 16 3.2 20.8 8s11.2 9.6 16 16c4.8 6.4 11.2 11.2 16 16 6.4 4.8 14.4 8 24 8s17.6-3.2 22.4-8c6.4-4.8 11.2-11.2 16-16 4.8-6.4 9.6-11.2 14.4-16s12.8-8 22.4-8c9.6 0 19.2 1.6 25.6 4.8s12.8 4.8 17.6 8c4.8 1.6 9.6 3.2 12.8 4.8 4.8 0 8-1.6 14.4-6.4 4.8-4.8 8-11.2 8-16 1.6-6.4 1.6-12.8 0-17.6-1.6-6.4-3.2-11.2-6.4-17.6-3.2-4.8-6.4-9.6-11.2-14.4l-20.8-20.8c-9.6-9.6-19.2-19.2-28.8-30.4-11.2-12.8-24-25.6-36.8-38.4h-256c-12.8 14.4-25.6 27.2-36.8 38.4-9.6 9.6-19.2 20.8-28.8 30.4-9.6 6.4-16 14.4-20.8 17.6zM667.2 662.4c43.2-24 81.6-54.4 116.8-88 14.4-14.4 28.8-32 43.2-49.6s27.2-38.4 38.4-60.8 19.2-46.4 27.2-72c6.4-25.6 9.6-52.8 9.6-81.6 0-48-8-92.8-22.4-131.2s-38.4-70.4-70.4-97.6c-32-27.2-72-48-121.6-62.4s-107.2-20.8-176-20.8-128 6.4-177.6 20.8c-49.6 14.4-89.6 35.2-121.6 62.4s-54.4 59.2-70.4 97.6c-14.4 38.4-22.4 81.6-22.4 131.2 0 28.8 3.2 56 9.6 81.6s16 49.6 27.2 72 24 41.6 36.8 60.8c14.4 17.6 28.8 35.2 43.2 49.6 33.6 33.6 73.6 64 116.8 88h313.6zM707.2 390.4h-108.8l68.8 91.2-32 24-68.8-92.8 30.4-22.4h-132.8l32 24-68.8 92.8-32-24 68.8-92.8h-108.8v-38.4h156.8v-78.4h-156.8v-40h156.8v-78.4h38.4v78.4h156.8v40h-156.8v78.4h156.8v38.4z" />
<glyph unicode="&#xe61d;" glyph-name="icon-my-account" d="M801.6 251.2h-545.6c-9.6 0-16 6.4-16 16s6.4 16 16 16h545.6c24 0 41.6 12.8 46.4 33.6l94.4 348.8c3.2 12.8 1.6 25.6-6.4 36.8s-24 17.6-40 17.6h-704c-9.6 0-16 6.4-16 16s6.4 16 16 16h704c25.6 0 51.2-11.2 65.6-32 14.4-17.6 17.6-41.6 11.2-64l-92.8-348.8c-9.6-33.6-40-56-78.4-56zM852.8 123.2h-540.8c-41.6 0-73.6 27.2-80 67.2l-80 620.8c-3.2 22.4-22.4 36.8-48 36.8h-40c-9.6 0-16 6.4-16 16s6.4 16 16 16h40c41.6 0 73.6-27.2 80-65.6l80-620.8c3.2-22.4 24-38.4 48-38.4h540.8c9.6 0 16-6.4 16-16s-6.4-16-16-16zM404.8 16h-84.8c-9.6 0-16 6.4-16 16s6.4 16 16 16h84.8c9.6 0 16-6.4 16-16s-6.4-16-16-16zM788.8 16h-84.8c-9.6 0-16 6.4-16 16s6.4 16 16 16h84.8c9.6 0 16-6.4 16-16s-6.4-16-16-16z" />
<glyph unicode="&#xe61e;" glyph-name="icon-my-empty-dd" d="M286.4 627.2h449.6c24 0 44.8 20.8 44.8 44.8s-20.8 44.8-44.8 44.8h-449.6c-24 0-44.8-20.8-44.8-44.8 0-25.6 20.8-44.8 44.8-44.8zM915.2 323.2v536c-3.2 44.8-41.6 81.6-88 81.6h-635.2c-48-4.8-83.2-43.2-83.2-89.6v-808c0-49.6 40-89.6 89.6-89.6h177.6c24 0 44.8 20.8 44.8 44.8s-20.8 44.8-44.8 44.8h-142.4l54.4 1.6c-72 0-89.6 12.8-89.6 89.6v-91.2 806.4h1.6v-89.6c0 76.8 17.6 89.6 89.6 89.6h446.4c67.2 0 86.4-11.2 89.6-73.6v-417.6h-224c-49.6 0-89.6-40-89.6-89.6v-260.8c-3.2-14.4 1.6-28.8 12.8-40 4.8-4.8 9.6-8 14.4-9.6s11.2-3.2 17.6-3.2c16 0 28.8 8 36.8 20.8l299.2 300.8c1.6 0 1.6 1.6 1.6 1.6 1.6 1.6 3.2 1.6 3.2 3.2l1.6 1.6c9.6 8 14.4 20.8 14.4 33.6 3.2 0 1.6 3.2 1.6 6.4zM825.6 851.2v0zM601.6 108.8v75.2c0 67.2 16 84.8 91.2 84.8h70.4l-161.6-160zM286.4 448h449.6c24 0 44.8 20.8 44.8 44.8s-20.8 44.8-44.8 44.8h-449.6c-24 0-44.8-20.8-44.8-44.8 0-25.6 20.8-44.8 44.8-44.8z" />
<glyph unicode="&#xe61f;" glyph-name="icon-my-love" d="M512 43.2c-17.6 0-35.2 6.4-49.6 16-297.6 212.8-403.2 332.8-414.4 480v52.8c12.8 163.2 121.6 249.6 216 259.2 16 1.6 28.8 1.6 41.6 1.6 104 0 156.8-44.8 206.4-102.4 51.2 59.2 104 102.4 206.4 102.4 12.8 0 27.2 0 41.6-1.6 94.4-9.6 201.6-96 216-257.6v-52.8c-11.2-147.2-116.8-267.2-414.4-481.6-14.4-11.2-32-16-49.6-16zM305.6 820.8c-12.8 0-24 0-38.4-1.6-81.6-9.6-176-84.8-187.2-228.8v-49.6c11.2-134.4 112-249.6 401.6-456 17.6-12.8 43.2-12.8 60.8 0 289.6 208 390.4 323.2 401.6 457.6v49.6c-11.2 142.4-105.6 217.6-187.2 227.2-12.8 1.6-25.6 1.6-38.4 1.6-97.6 0-142.4-43.2-193.6-104l-12.8-16-12.8 14.4c-57.6 70.4-104 105.6-193.6 105.6z" />
<glyph unicode="&#xe620;" glyph-name="icon-my-star" d="M745.6 1.6c-12.8 0-27.2 3.2-38.4 9.6l-169.6 91.2c-14.4 8-33.6 8-49.6 0l-171.2-89.6c-35.2-17.6-80-8-104 20.8-16 19.2-22.4 43.2-17.6 67.2l32 190.4c3.2 17.6-3.2 35.2-14.4 46.4l-139.2 136c-22.4 22.4-30.4 54.4-20.8 84.8s35.2 52.8 67.2 59.2l192 27.2c16 1.6 32 12.8 38.4 28.8l86.4 174.4c14.4 28.8 43.2 44.8 75.2 44.8 33.6 0 62.4-17.6 75.2-46.4l86.4-174.4c6.4-16 20.8-25.6 38.4-28.8l192-27.2c32-4.8 57.6-25.6 68.8-57.6 9.6-30.4 1.6-64-20.8-86.4l-140.8-136c-12.8-12.8-17.6-30.4-14.4-46.4l32-190.4c4.8-24-1.6-49.6-17.6-67.2-17.6-19.2-41.6-30.4-65.6-30.4zM512 140.8c14.4 0 27.2-3.2 40-11.2l169.6-91.2c20.8-11.2 49.6-4.8 64 12.8 9.6 11.2 14.4 27.2 11.2 41.6l-32 190.4c-4.8 25.6 3.2 54.4 24 75.2l140.8 136c14.4 14.4 19.2 35.2 12.8 54.4s-22.4 32-41.6 35.2l-192 27.2c-28.8 4.8-51.2 20.8-64 46.4l-86.4 176c-8 17.6-25.6 28.8-46.4 28.8-19.2 0-36.8-9.6-46.4-27.2l-86.4-174.4c-12.8-24-36.8-41.6-64-44.8l-192-27.2c-20.8-3.2-36.8-17.6-43.2-36.8-4.8-20.8 0-40 14.4-54.4l139.2-136c19.2-19.2 27.2-46.4 24-75.2l-32-190.4c-3.2-16 1.6-30.4 11.2-41.6 16-19.2 43.2-24 65.6-12.8l171.2 89.6c11.2 6.4 25.6 9.6 38.4 9.6z" />
<glyph unicode="&#xe621;" glyph-name="icon-my-youhuiquan" d="M940.8 699.2c-12.8-25.6-41.6-48-78.4-67.2v43.2c22.4 12.8 40 27.2 46.4 41.6 17.6 36.8 17.6 73.6 0 100.8-16 25.6-46.4 40-81.6 40-67.2 0-120-140.8-145.6-244.8l-14.4-11.2-22.4 35.2c24 97.6 80 259.2 177.6 259.2 105.6 0 164.8-94.4 118.4-196.8zM646.4 542.4c17.6 0 32 11.2 36.8 27.2 11.2 9.6 24 20.8 38.4 30.4 1.6-6.4 3.2-12.8 3.2-19.2 0-43.2-35.2-78.4-78.4-78.4s-78.4 35.2-78.4 78.4c0 32 19.2 60.8 48 72-6.4-32-9.6-52.8-9.6-52.8s-11.2 4.8 0-19.2c1.6-20.8 19.2-38.4 40-38.4zM529.6 718.4c-11.2 0-30.4-8-38.4-16l-384-385.6 276.8-278.4 384 385.6c8 8 16 28.8 16 40v254.4h-33.6c6.4 14.4 12.8 28.8 19.2 40h14.4c20.8 0 38.4-17.6 38.4-40v-254.4c0-22.4-12.8-51.2-27.2-67.2l-384-385.6c-16-16-40-16-56 0l-276.8 278.4c-16 16-16 40 0 56l384 385.6c16 16 44.8 27.2 67.2 27.2h115.2c-4.8-12.8-9.6-27.2-12.8-40h-102.4zM539.2 40l305.6 307.2c8 8 16 28.8 16 40v190.4c14.4 8 27.2 16 38.4 25.6v-216c0-22.4-12.8-51.2-27.2-67.2l-304-308.8c-16-16-40-16-56 0l-24 24 27.2 27.2 24-22.4z" />
<glyph unicode="&#xe622;" glyph-name="icon-phone" d="M774.4 0h-8c-43.2 3.2-92.8 17.6-142.4 43.2l-56 30.4c-105.6 57.6-265.6 224-273.6 230.4l-11.2 12.8c-28.8 30.4-86.4 97.6-137.6 179.2-57.6 92.8-83.2 174.4-80 240 3.2 48 22.4 88 59.2 116.8 40 32 75.2 44.8 108.8 40 36.8-4.8 70.4-28.8 105.6-76.8 1.6-3.2 4.8-6.4 6.4-9.6 25.6-35.2 49.6-65.6 57.6-97.6 9.6-36.8-1.6-72-35.2-105.6v1.6c-1.6-1.6-9.6-9.6-9.6-28.8s6.4-41.6 20.8-67.2c19.2-35.2 52.8-73.6 97.6-116.8 75.2-70.4 123.2-91.2 150.4-94.4 24-3.2 35.2 4.8 36.8 6.4 28.8 33.6 65.6 43.2 108.8 32 32-8 65.6-27.2 113.6-62.4 35.2-27.2 57.6-52.8 67.2-81.6 9.6-30.4 4.8-64-14.4-97.6-4.8-9.6-17.6-12.8-25.6-6.4-9.6 4.8-12.8 17.6-6.4 25.6 14.4 25.6 17.6 46.4 11.2 67.2s-24 41.6-52.8 62.4c-54.4 41.6-83.2 51.2-99.2 56-30.4 8-51.2 1.6-70.4-20.8-1.6-3.2-17.6-19.2-48-20.8-51.2-3.2-116.8 32-193.6 105.6-89.6 84.8-132.8 156.8-131.2 214.4 1.6 32 17.6 49.6 22.4 54.4 48 48 27.2 80-25.6 152-1.6 3.2-4.8 6.4-6.4 9.6-28.8 38.4-54.4 59.2-80 62.4-24 3.2-49.6-8-80-32-32-20.8-48-51.2-49.6-88-3.2-56 22.4-131.2 73.6-217.6 57.6-94.4 124.8-166.4 144-185.6l3.2-3.2c20.8-20.8 168-169.6 260.8-220.8l56-30.4c44.8-22.4 89.6-36.8 128-40 1.6 0 17.6 0 33.6 1.6 6.4 1.6 12.8 1.6 19.2 3.2 25.6 4.8 59.2 11.2 104 12.8 11.2 0 19.2-8 19.2-17.6 0-11.2-8-19.2-17.6-19.2-41.6-1.6-72-8-97.6-12.8-8-1.6-14.4-3.2-20.8-3.2-14.4-3.2-27.2-3.2-35.2-3.2z" />
<glyph unicode="&#xe623;" glyph-name="icon-pingjia" d="M872 662.4c0 48-38.4 88-88 88h-403.2c-9.6 0-17.6-8-17.6-17.6s8-17.6 17.6-17.6h412.8c24 0 43.2-19.2 43.2-43.2v-374.4c0-3.2 0-4.8-1.6-8h1.6c0-9.6 8-17.6 17.6-17.6s17.6 8 17.6 17.6c0 1.6 0 3.2-1.6 4.8 0 3.2 1.6 8 1.6 11.2v356.8zM715.2 678.4h-441.6c-48 0-88-38.4-88-88v-358.4c0-48 38.4-88 88-88h134.4l60.8-60.8c14.4-14.4 35.2-14.4 49.6 0l60.8 60.8h134.4c48 0 88 38.4 88 88v360c0 48-38.4 86.4-86.4 86.4zM353.6 395.2c-14.4 0-25.6 11.2-25.6 27.2s11.2 27.2 25.6 27.2c14.4 0 25.6-11.2 25.6-27.2s-11.2-27.2-25.6-27.2zM494.4 395.2c-14.4 0-25.6 11.2-25.6 27.2s11.2 25.6 25.6 25.6c14.4 0 25.6-11.2 25.6-27.2s-11.2-25.6-25.6-25.6zM635.2 395.2c-14.4 0-25.6 11.2-25.6 27.2s11.2 27.2 25.6 27.2 25.6-11.2 25.6-27.2-11.2-27.2-25.6-27.2z" />
<glyph unicode="&#xe624;" glyph-name="icon-question" d="M520 284.8c16 0 30.4-12.8 30.4-30.4v-8c0-16-12.8-30.4-30.4-30.4-16 0-30.4 12.8-30.4 30.4v8c0 16 12.8 30.4 30.4 30.4zM380.8 523.2s1.6-20.8 25.6-20.8c22.4 0 24 20.8 24 20.8-1.6 67.2 28.8 99.2 92.8 96 41.6-4.8 64-28.8 65.6-72-3.2-19.2-19.2-43.2-48-73.6-38.4-38.4-56-72-56-102.4v-30.4s3.2-19.2 24-19.2 24 19.2 24 19.2v20.8c0 25.6 17.6 56 54.4 91.2 38.4 35.2 56 67.2 56 96-3.2 80-44.8 120-124.8 123.2-91.2 0-137.6-49.6-137.6-148.8zM512 896c-248 0-448-200-448-448s200-448 448-448 448 200 448 448-200 448-448 448zM512 43.2c-224 0-404.8 180.8-404.8 404.8s180.8 404.8 404.8 404.8 404.8-180.8 404.8-404.8-180.8-404.8-404.8-404.8z" />
<glyph unicode="&#xe625;" glyph-name="icon-rmb" d="M512 896c-248 0-448-200-448-448s200-448 448-448 448 200 448 448-200 448-448 448zM689.6 483.2v-60.8h-147.2v-60.8h147.2v-60.8h-147.2v-102.4h-62.4v102.4h-147.2v60.8h147.2v60.8h-147.2v60.8h121.6l-121.6 140.8 48 38.4 129.6-150.4 132.8 148.8 48-40-123.2-139.2h121.6z" />
<glyph unicode="&#xe626;" glyph-name="icon-safe" d="M510.4-16c-12.8 0-27.2 4.8-38.4 12.8l-198.4 145.6c-113.6 84.8-177.6 212.8-177.6 352v246.4c4.8 27.2 22.4 49.6 46.4 57.6l342.4 110.4c17.6 6.4 35.2 6.4 52.8 0l342.4-110.4c25.6-8 43.2-32 43.2-60.8v-243.2c0-139.2-64-267.2-177.6-352l-198.4-145.6c-9.6-8-24-12.8-36.8-12.8zM128 736v-241.6c0-129.6 60.8-248 164.8-326.4l198.4-145.6c11.2-8 25.6-8 36.8 0l198.4 145.6c104 78.4 164.8 196.8 164.8 326.4v243.2c0 14.4-8 25.6-20.8 30.4l-342.4 108.8c-11.2 3.2-22.4 3.2-33.6 0l-342.4-110.4c-12.8-3.2-20.8-17.6-24-30.4zM721.6 524.8h-419.2c-9.6 0-16 6.4-16 16s6.4 16 16 16h419.2c9.6 0 16-6.4 16-16s-6.4-16-16-16zM512 244.8c-9.6 0-16 6.4-16 16v467.2c0 9.6 6.4 16 16 16s16-6.4 16-16v-467.2c0-9.6-6.4-16-16-16z" />
<glyph unicode="&#xe627;" glyph-name="icon-searcher" d="M1011.2-49.6c-17.6-17.6-46.4-17.6-64 0l-270.4 268.8c-72-56-161.6-91.2-260.8-91.2-230.4 0-416 185.6-416 416s185.6 416 416 416 416-185.6 416-416c0-97.6-33.6-188.8-91.2-259.2l270.4-270.4c17.6-17.6 17.6-46.4 0-64zM768 544c0 193.6-156.8 352-352 352s-352-158.4-352-352 156.8-352 352-352 352 156.8 352 352z" />
<glyph unicode="&#xe628;" glyph-name="icon-setting" d="M848 336c62.4 0 112 49.6 112 112s-49.6 112-112 112h-19.2c-3.2 11.2-8 22.4-12.8 32l14.4 14.4c20.8 20.8 32 49.6 32 78.4 0 30.4-11.2 57.6-32 78.4s-49.6 32-78.4 32c-30.4 0-57.6-11.2-78.4-32l-17.6-12.8c-11.2 4.8-20.8 9.6-32 12.8v20.8c0 62.4-49.6 112-112 112s-112-49.6-112-112v-19.2c-11.2-3.2-22.4-8-32-12.8l-14.4 14.4c-20.8 20.8-49.6 32-78.4 32-30.4 0-57.6-11.2-78.4-32s-32-49.6-32-78.4c0-30.4 11.2-57.6 32-78.4l14.4-14.4c-4.8-11.2-9.6-20.8-12.8-32h-22.4c-62.4 0-112-49.6-112-112s49.6-112 112-112h19.2c3.2-11.2 8-22.4 12.8-32l-14.4-14.4c-20.8-20.8-32-49.6-32-78.4 0-30.4 11.2-57.6 32-78.4s49.6-32 78.4-32c30.4 0 57.6 11.2 78.4 32l14.4 14.4c11.2-4.8 20.8-9.6 32-12.8v-25.6c0-62.4 49.6-112 112-112s112 49.6 112 112v19.2c11.2 3.2 22.4 8 32 12.8l14.4-14.4c20.8-20.8 49.6-32 78.4-32 30.4 0 57.6 11.2 78.4 32s32 49.6 32 78.4c0 30.4-11.2 57.6-32 78.4l-9.6 17.6c4.8 11.2 9.6 20.8 12.8 32h20.8zM788.8 249.6c11.2-11.2 16-24 16-40 0-14.4-6.4-28.8-16-40-20.8-20.8-57.6-20.8-78.4 0l-43.2 43.2-19.2-9.6c-19.2-11.2-38.4-19.2-60.8-24l-20.8-6.4v-60.8c0-30.4-25.6-56-56-56s-56 25.6-56 56v60.8l-20.8 6.4c-20.8 6.4-41.6 14.4-60.8 24l-19.2 9.6-43.2-43.2c-20.8-20.8-57.6-20.8-78.4 0-11.2 11.2-16 24-16 40 0 14.4 6.4 28.8 16 40l43.2 43.2-9.6 19.2c-9.6 19.2-19.2 38.4-24 60.8l-6.4 20.8h-59.2c-30.4 0-56 25.6-56 56s25.6 56 56 56h60.8l6.4 20.8c6.4 20.8 14.4 41.6 24 60.8l9.6 19.2-43.2 43.2c-11.2 11.2-16 24-16 40s6.4 28.8 16 40c20.8 20.8 57.6 20.8 78.4 0l43.2-43.2 19.2 9.6c19.2 11.2 38.4 19.2 60.8 24l20.8 6.4v57.6c0 30.4 25.6 56 56 56s56-25.6 56-56v-60.8l20.8-6.4c20.8-6.4 41.6-14.4 60.8-24l19.2-9.6 43.2 43.2c20.8 20.8 57.6 20.8 78.4 0 11.2-11.2 16-24 16-40s-6.4-28.8-16-40l-43.2-43.2 9.6-19.2c11.2-19.2 19.2-38.4 24-60.8l6.4-20.8h60.8c30.4 0 56-25.6 56-56s-25.6-56-56-56h-60.8l-6.4-20.8c-6.4-20.8-14.4-41.6-24-60.8l-9.6-19.2 41.6-40zM512 616c-92.8 0-168-75.2-168-168s75.2-168 168-168 168 75.2 168 168-75.2 168-168 168zM512 336c-62.4 0-112 49.6-112 112s49.6 112 112 112 112-49.6 112-112-49.6-112-112-112z" />
<glyph unicode="&#xe629;" glyph-name="icon-shop" d="M768 216h-344c-41.6 0-83.2 32-91.2 73.6l-94.4 392c-6.4 25.6-30.4 56-52.8 67.2l-72 35.2c-8 6.4-12.8 17.6-6.4 28.8l1.6 3.2c6.4 9.6 19.2 12.8 28.8 8l70.4-38.4c33.6-17.6 64-59.2 75.2-96l94.4-392c4.8-19.2 28.8-38.4 48-38.4h342.4c11.2 0 19.2-8 19.2-19.2v-4.8c0-11.2-8-19.2-19.2-19.2zM755.2 308.8h-406.4v44.8h408c20.8 0 46.4 17.6 52.8 40l64 182.4c3.2 6.4 3.2 12.8-1.6 17.6-3.2 4.8-8 6.4-16 6.4h-577.6v44.8h577.6c20.8 0 41.6-8 52.8-25.6 11.2-16 14.4-38.4 6.4-57.6l-62.4-182.4c-14.4-40-56-70.4-97.6-70.4zM438.4 70.4c-38.4 0-67.2 30.4-67.2 67.2 0 38.4 30.4 67.2 67.2 67.2s67.2-30.4 67.2-67.2c3.2-38.4-27.2-67.2-67.2-67.2zM438.4 163.2c-12.8 0-25.6-9.6-25.6-25.6 0-12.8 9.6-25.6 25.6-25.6 12.8 0 25.6 9.6 25.6 25.6 0 12.8-9.6 25.6-25.6 25.6zM728 70.4c-38.4 0-67.2 30.4-67.2 67.2 0 38.4 30.4 67.2 67.2 67.2s67.2-30.4 67.2-67.2c0-38.4-30.4-67.2-67.2-67.2zM728 163.2c-12.8 0-25.6-9.6-25.6-25.6 0-12.8 9.6-25.6 25.6-25.6 12.8 0 25.6 9.6 25.6 25.6-3.2 12.8-14.4 25.6-25.6 25.6z" />
<glyph unicode="&#xe62a;" glyph-name="icon-shouhuo" d="M513.6 846.4c118.4 0 214.4-94.4 220.8-212.8h48c-4.8 145.6-123.2 262.4-268.8 262.4s-264-116.8-268.8-262.4h48c4.8 118.4 102.4 212.8 220.8 212.8zM844.8 611.2h-665.6c-49.6 0-89.6-38.4-89.6-88l89.6-436.8c0-48 40-88 89.6-88h489.6c49.6 0 89.6 38.4 89.6 88l89.6 436.8c-3.2 49.6-43.2 88-92.8 88zM312 393.6c-24 0-44.8 19.2-44.8 43.2s19.2 43.2 44.8 43.2c24 0 44.8-19.2 44.8-43.2s-20.8-43.2-44.8-43.2zM712 393.6c-24 0-44.8 19.2-44.8 43.2s19.2 43.2 44.8 43.2c24 0 44.8-19.2 44.8-43.2s-20.8-43.2-44.8-43.2z" />
<glyph unicode="&#xe62b;" glyph-name="icon-success" d="M688 579.2l-227.2-232-124.8 126.4c-11.2 11.2-28.8 11.2-40 0s-11.2-28.8 0-40l145.6-145.6c4.8-4.8 12.8-8 19.2-8 8 0 14.4 3.2 19.2 8l246.4 252.8c11.2 11.2 11.2 28.8 0 40-9.6 9.6-27.2 9.6-38.4-1.6zM512 896c-246.4 0-448-201.6-448-448s201.6-448 448-448 448 201.6 448 448-201.6 448-448 448zM512 56c-216 0-392 176-392 392s176 392 392 392 392-176 392-392-176-392-392-392z" />
<glyph unicode="&#xe62c;" d="M704 8h-384c-75.2 0-136 60.8-136 136v584h656v-584c0-75.2-60.8-136-136-136zM200 712v-568c0-65.6 54.4-120 120-120h384c65.6 0 120 54.4 120 120v568h-624zM704-8h-384c-83.2 0-152 68.8-152 152v600h688v-600c0-83.2-68.8-152-152-152zM184 728v-584c0-75.2 60.8-136 136-136h384c75.2 0 136 60.8 136 136v584h-656zM704 24h-384c-65.6 0-120 54.4-120 120v568h624v-568c0-65.6-54.4-120-120-120zM216 696v-552c0-57.6 46.4-104 104-104h384c57.6 0 104 46.4 104 104v552h-592z" />
<glyph unicode="&#xe62d;" d="M640 736h-256v64c0 35.2 28.8 64 64 64h128c35.2 0 64-28.8 64-64v-64z" />
<glyph unicode="&#xe62e;" d="M656 720h-288v80c0 44.8 35.2 80 80 80h128c44.8 0 80-35.2 80-80v-80zM400 752h224v48c0 27.2-20.8 48-48 48h-128c-27.2 0-48-20.8-48-48v-48zM960 720h-896c-9.6 0-16 6.4-16 16s6.4 16 16 16h896c9.6 0 16-6.4 16-16s-6.4-16-16-16zM512 208c-9.6 0-16 6.4-16 16v363.2c0 9.6 6.4 16 16 16s16-6.4 16-16v-363.2c0-9.6-6.4-16-16-16zM340.8 251.2c-9.6 0-16 6.4-16 16v276.8c0 9.6 6.4 16 16 16s16-6.4 16-16v-276.8c0-9.6-6.4-16-16-16zM660.8 251.2c-9.6 0-16 6.4-16 16v276.8c0 9.6 6.4 16 16 16s16-6.4 16-16v-276.8c0-9.6-6.4-16-16-16z" />
<glyph unicode="&#xe62f;" glyph-name="icon-user" d="M865.6 188.8v4.8c0 68.8-92.8 147.2-232 177.6 28.8 33.6 49.6 76.8 49.6 128v134.4c0 104-73.6 182.4-171.2 182.4s-171.2-78.4-171.2-184v-134.4c0-52.8 12.8-99.2 44.8-132.8-118.4-30.4-224-97.6-224-172.8 0-1.6-1.6-3.2-1.6-4.8-1.6-11.2-3.2-38.4 25.6-54.4 64-33.6 185.6-52.8 326.4-52.8s262.4 19.2 326.4 54.4c30.4 16 28.8 43.2 27.2 54.4zM385.6 499.2v134.4c0 78.4 54.4 137.6 126.4 137.6s126.4-59.2 126.4-137.6v-134.4c0-78.4-54.4-137.6-126.4-137.6s-126.4 57.6-126.4 137.6zM817.6 176c-57.6-28.8-174.4-48-305.6-48s-249.6 17.6-305.6 48c-1.6 0-1.6 1.6-3.2 1.6v16c0 40 91.2 113.6 225.6 136 22.4-11.2 46.4-16 72-16 27.2 0 54.4 6.4 76.8 17.6 142.4-19.2 240-96 240-139.2v-9.6s0-6.4 1.6-6.4c1.6 1.6 0 1.6-1.6 0z" />
</font>
</defs>
</svg>
